<svg width="128" height="128" viewBox="0 0 128 128" fill="none" xmlns="http://www.w3.org/2000/svg">
<path d="M96.0532 37.6221C92.5563 21.8256 83.8742 13.9274 70.0071 13.9274C66.7513 13.9274 63.7367 14.47 60.9633 15.5552C58.1898 16.5199 55.7179 17.8463 53.5473 19.5345C51.4974 21.2227 49.8695 23.2123 48.6637 25.5034C47.5784 27.7945 47.0358 30.2062 47.0358 32.7385C47.0358 34.7884 47.3976 36.7178 48.1211 38.5265C48.8446 40.2147 50.2313 42.0234 52.2812 43.9528C54.3311 45.7616 57.1649 47.7512 60.7824 49.9217C64.3999 52.0922 69.0424 54.6848 74.7099 57.6994C80.4979 60.5934 85.3815 63.2462 89.3608 65.6579C93.4607 67.949 96.837 70.421 99.4899 73.0739C102.143 75.6061 104.072 78.4398 105.278 81.575C106.484 84.7102 107.087 88.5086 107.087 92.9702C107.087 103.099 103.529 111.299 96.415 117.569C89.4211 123.719 79.5935 126.794 66.9322 126.794C55.2355 126.794 44.5638 123.96 34.9171 118.293L36.9068 91.3423H39.439C39.9214 95.6834 41.1272 99.7229 43.0565 103.461C44.9859 107.199 47.3373 110.455 50.1107 113.228C53.0047 115.881 56.2002 117.991 59.6971 119.559C63.1941 121.127 66.7513 121.91 70.3688 121.91C73.6246 121.91 76.8201 121.428 79.9553 120.463C83.0904 119.378 85.8036 117.931 88.0947 116.122C90.5064 114.314 92.4357 112.143 93.8827 109.611C95.3297 106.958 96.0532 104.064 96.0532 100.929C96.0532 98.0348 95.6312 95.5628 94.7871 93.5128C93.943 91.3423 92.4357 89.2321 90.2652 87.1822C88.2153 85.1323 85.3815 83.022 81.764 80.8515C78.1465 78.681 73.5643 76.1487 68.0174 73.2547C57.2855 67.5873 49.4475 62.1007 44.5035 56.795C39.5596 51.4893 37.0876 45.3998 37.0876 38.5265C37.0876 34.1855 37.9317 30.2665 39.6199 26.7696C41.4287 23.152 43.9006 20.0169 47.0358 17.364C50.2916 14.7112 54.09 12.6612 58.431 11.2142C62.772 9.76721 67.5954 9.0437 72.9011 9.0437C83.3919 9.0437 92.1343 11.6966 99.1281 17.0023L98.4046 37.6221H96.0532Z" fill="url(#paint0_linear_1103_20)"/>
<path fill-rule="evenodd" clip-rule="evenodd" d="M74.7602 15.189C77.1534 18.7363 78.9454 23.1995 80.1361 28.5784H82.4875L82.8984 16.8682C90.9665 19.9859 96.276 27.3059 98.8267 38.8281H101.178L101.902 18.2082C96.6316 14.2103 90.369 11.7187 83.1137 10.7332L83.211 7.95855C76.2171 2.65285 67.4748 0 56.984 0C51.6783 0 46.8549 0.723506 42.5139 2.17052C38.1729 3.61753 34.3745 5.66746 31.1187 8.3203C27.9835 10.9732 25.5115 14.1083 23.7028 17.7259C22.0146 21.2228 21.1705 25.1418 21.1705 29.4828C21.1705 36.3561 23.6425 42.4456 28.5864 47.7513C33.035 52.5254 39.8267 57.4459 48.9616 62.5129V88.8023C48.9616 88.9314 49.0129 89.0553 49.1042 89.1466C49.1956 89.2379 49.3194 89.2893 49.4486 89.2893C49.5776 89.2893 49.7013 89.2381 49.7926 89.147C49.8839 89.0559 49.9353 88.9322 49.9355 88.8033V63.0489C50.6436 63.4354 51.3652 63.8228 52.1003 64.211C53.2094 64.7897 54.2799 65.3538 55.3118 65.9035V82.1742C55.3118 82.3034 55.3631 82.4272 55.4544 82.5186C55.5457 82.6099 55.6696 82.6612 55.7987 82.6612C55.9279 82.6612 56.0518 82.6099 56.1431 82.5186C56.2344 82.4272 56.2857 82.3034 56.2857 82.1742V66.4242C58.2255 67.465 60.0223 68.4522 61.676 69.3857C61.6971 69.4713 61.7412 69.5503 61.8046 69.6137C61.8959 69.705 62.0198 69.7564 62.1489 69.7564C62.1979 69.7564 62.2462 69.749 62.2922 69.7348C63.5657 70.459 64.7506 71.15 65.8469 71.8078C66.603 72.2615 67.3249 72.7125 68.0126 73.161V85.8615C68.0126 85.9906 68.0639 86.1145 68.1552 86.2058C68.2465 86.2971 68.3704 86.3484 68.4995 86.3484C68.6287 86.3484 68.7526 86.2971 68.8439 86.2058C68.9352 86.1145 68.9865 85.9906 68.9865 85.8615V73.8099C71.1467 75.2814 72.9339 76.7243 74.3481 78.1385C76.5186 80.1884 78.0259 82.2986 78.87 84.4691C79.7141 86.5191 80.1361 88.991 80.1361 91.8851C80.1361 95.0203 79.4126 97.9143 77.9656 100.567C76.5186 103.099 74.5893 105.27 72.1776 107.079C69.8865 108.887 67.1733 110.334 64.0381 111.42C60.903 112.384 57.7075 112.867 54.4517 112.867C53.3696 112.867 52.2929 112.797 51.2216 112.656C49.1585 110.297 47.3613 107.634 45.83 104.667C43.9006 100.929 42.6948 96.8893 42.2124 92.5483H39.6802L38.5669 107.628C37.0397 106.605 35.582 105.457 34.1936 104.185C31.4202 101.411 29.0688 98.1554 27.1394 94.4173C25.2101 90.6792 24.0042 86.6397 23.5219 82.2986H20.9896L19 109.249C24.9186 112.726 31.2231 115.137 37.9133 116.481L37.6905 119.499C47.3373 125.166 58.0089 128 69.7056 128C82.3669 128 92.1945 124.925 99.1884 118.775C106.303 112.505 109.86 104.305 109.86 94.1762C109.86 89.7146 109.257 85.9162 108.051 82.781C106.845 79.6458 104.916 76.8121 102.263 74.2798C99.6105 71.6269 96.2341 69.155 92.1342 66.8639C90.8612 66.0923 89.4956 65.2961 88.0375 64.4752V53.3778C88.0375 53.2486 87.9862 53.1247 87.8949 53.0334C87.8035 52.9421 87.6797 52.8908 87.5505 52.8908C87.4214 52.8908 87.2975 52.9421 87.2062 53.0334C87.1149 53.1247 87.0635 53.2486 87.0635 53.3778V63.9309C85.3871 63.0006 83.5949 62.0394 81.6869 61.0473V47.671C81.6869 47.5419 81.6356 47.418 81.5442 47.3267C81.4529 47.2354 81.329 47.1841 81.1999 47.1841C81.0707 47.1841 80.9469 47.2354 80.8555 47.3267C80.7642 47.418 80.7129 47.5419 80.7129 47.671V60.5434C79.6696 60.0062 78.5931 59.4602 77.4833 58.9053C76.9365 58.6145 76.3991 58.3275 75.8714 58.0445C75.6947 57.9346 75.5165 57.8252 75.3367 57.7161V51.6657C75.3367 51.5366 75.2854 51.4127 75.1941 51.3214C75.1027 51.2301 74.9789 51.1788 74.8497 51.1788C74.7206 51.1788 74.5967 51.2301 74.5054 51.3214C74.414 51.4127 74.3627 51.5366 74.3627 51.6657V57.1379C74.0605 56.9623 73.7542 56.7877 73.4437 56.6142C72.0663 55.7795 70.5806 54.9158 68.9865 54.0232V42.3162C68.9865 42.1871 68.9352 42.0632 68.8439 41.9719C68.7526 41.8805 68.6287 41.8292 68.4995 41.8292C68.3704 41.8292 68.2465 41.8805 68.1552 41.9719C68.0639 42.0632 68.0126 42.1871 68.0126 42.3162V53.4817C66.4676 52.6287 64.8263 51.75 63.0885 50.8456C60.3565 49.1871 58.089 47.6357 56.2857 46.1915V46.0037C56.2857 45.8746 56.2344 45.7507 56.1431 45.6594C56.0518 45.568 55.9279 45.5167 55.7987 45.5167C55.7101 45.5167 55.6239 45.5409 55.549 45.5856C55.3795 45.4422 55.2147 45.2999 55.0546 45.1587C53.0047 43.2294 51.618 41.4206 50.8945 39.7325C50.171 37.9237 49.8092 35.9943 49.8092 33.9444C49.8092 31.4122 50.3519 29.0005 51.4371 26.7094C52.643 24.4183 54.2708 22.4286 56.3208 20.7405C58.4913 19.0523 60.9633 17.7259 63.7367 16.7612C66.5101 15.6759 69.5247 15.1333 72.7805 15.1333C73.4526 15.1333 74.1125 15.1519 74.7602 15.189ZM55.549 45.5856C55.5148 45.606 55.483 45.6307 55.4544 45.6594C55.3631 45.7507 55.3118 45.8746 55.3118 46.0037V65.9035C55.6403 66.0786 55.965 66.2521 56.2857 66.4242V46.1915C56.0309 45.9874 55.7853 45.7854 55.549 45.5856ZM68.0126 53.4817V73.161C68.3452 73.3779 68.6699 73.5942 68.9865 73.8099V54.0232C68.6662 53.8439 68.3416 53.6634 68.0126 53.4817ZM74.3627 57.1379V76.5112C74.3627 76.6403 74.414 76.7642 74.5054 76.8555C74.5967 76.9468 74.7206 76.9982 74.8497 76.9982C74.9789 76.9982 75.1027 76.9468 75.1941 76.8555C75.2854 76.7642 75.3367 76.6403 75.3367 76.5112V57.7161C75.017 57.5221 74.6923 57.3294 74.3627 57.1379ZM80.7129 60.5434V80.5058C80.7129 80.6349 80.7642 80.7588 80.8555 80.8501C80.9469 80.9414 81.0707 80.9927 81.1999 80.9927C81.329 80.9927 81.4529 80.9414 81.5442 80.8501C81.6356 80.7588 81.6869 80.6349 81.6869 80.5058V61.0473C81.3655 60.8802 81.0408 60.7123 80.7129 60.5434ZM87.0635 63.9309V74.7988C87.0635 74.9279 87.1149 75.0518 87.2062 75.1431C87.2975 75.2345 87.4214 75.2858 87.5505 75.2858C87.6797 75.2858 87.8035 75.2345 87.8949 75.1431C87.9862 75.0518 88.0375 74.9279 88.0375 74.7988V64.4752C87.7173 64.295 87.3927 64.1135 87.0635 63.9309ZM62.2922 69.7348C62.3674 69.7116 62.4366 69.6704 62.4933 69.6137C62.5846 69.5224 62.6359 69.3985 62.6359 69.2694V58.9095C62.6359 58.7803 62.5846 58.6565 62.4933 58.5651C62.4019 58.4738 62.2781 58.4225 62.1489 58.4225C62.0198 58.4225 61.8959 58.4738 61.8046 58.5651C61.7132 58.6565 61.6619 58.7803 61.6619 58.9095V69.2694C61.6619 69.3089 61.6668 69.3479 61.676 69.3857C61.8837 69.5029 62.0891 69.6193 62.2922 69.7348ZM49.9355 63.0489V39.3753C49.9355 39.2462 49.8842 39.1223 49.7929 39.031C49.7016 38.9397 49.5777 38.8884 49.4486 38.8884C49.3194 38.8884 49.1956 38.9397 49.1042 39.031C49.0129 39.1223 48.9616 39.2462 48.9616 39.3753V62.5129C49.2833 62.6914 49.608 62.87 49.9355 63.0489ZM70.6347 10.4808C67.2724 10.7989 64.1289 11.4453 61.2044 12.4202C56.8634 13.8672 53.065 15.9171 49.8092 18.5699C46.674 21.2228 44.2021 24.358 42.3933 27.9755C40.9745 30.9144 40.1519 34.1515 39.9255 37.6866C38.5517 36.7177 37.3646 35.7918 36.3641 34.9091C34.3142 32.9798 32.9275 31.171 32.204 29.4828C31.4805 27.674 31.1187 25.7447 31.1187 23.6948C31.1187 21.1625 31.6613 18.7508 32.7466 16.4597C33.9524 14.1686 35.5803 12.179 37.6302 10.4908C39.8008 8.80264 42.2727 7.47622 45.0462 6.51154C47.8196 5.42629 50.8342 4.88366 54.09 4.88366C60.8297 4.88366 66.3446 6.74936 70.6347 10.4808ZM91.0834 86.6111C90.5014 95.514 86.9729 102.819 80.4979 108.526C74.5965 113.715 66.6776 116.715 56.7411 117.525C58.5514 118.784 60.4612 119.864 62.4706 120.765C65.9675 122.333 69.5247 123.116 73.1422 123.116C76.398 123.116 79.5935 122.634 82.7287 121.669C85.8639 120.584 88.577 119.137 90.8681 117.328C93.2798 115.52 95.2091 113.349 96.6561 110.817C98.1031 108.164 98.8267 105.27 98.8267 102.135C98.8267 99.2407 98.4046 96.7687 97.5605 94.7188C96.7164 92.5483 95.2091 90.4381 93.0386 88.3881C92.4512 87.8007 91.7995 87.2084 91.0834 86.6111ZM37.3332 66.0676H45.2343C45.3635 66.0676 45.4874 66.0163 45.5787 65.925C45.67 65.8337 45.7213 65.7098 45.7213 65.5807C45.7213 65.4515 45.67 65.3276 45.5787 65.2363C45.4874 65.145 45.3635 65.0937 45.2343 65.0937H37.3332C37.204 65.0937 37.0802 65.145 36.9888 65.2363C36.8975 65.3276 36.8462 65.4515 36.8462 65.5807C36.8462 65.7098 36.8975 65.8337 36.9888 65.925C37.0802 66.0163 37.204 66.0676 37.3332 66.0676ZM91.7645 66.0676H99.6661C99.7953 66.0676 99.9191 66.0163 100.01 65.925C100.102 65.8337 100.153 65.7098 100.153 65.5807C100.153 65.4515 100.102 65.3276 100.01 65.2363C99.9191 65.145 99.7953 65.0937 99.6661 65.0937H91.7645C91.6353 65.0937 91.5115 65.145 91.4201 65.2363C91.3288 65.3276 91.2775 65.4515 91.2775 65.5807C91.2775 65.7098 91.3288 65.8337 91.4201 65.925C91.5115 66.0163 91.6353 66.0676 91.7645 66.0676Z" fill="black"/>
<defs>
<linearGradient id="paint0_linear_1103_20" x1="71.0019" y1="9.0437" x2="71.0443" y2="226.311" gradientUnits="userSpaceOnUse">
<stop stop-color="#FFDB7E"/>
<stop offset="1" stop-color="#FF8181" stop-opacity="0"/>
</linearGradient>
</defs>
</svg>
