<svg width="18" height="17" viewBox="0 0 18 17" fill="none" xmlns="http://www.w3.org/2000/svg">
<path d="M0.28204 16.9834C0.358141 17.0062 0.439337 17.0055 0.515039 16.9815L0.526917 16.9934L5.35219 15.4932C5.52245 15.4264 5.68242 15.3358 5.8272 15.224L16.7207 4.3305C17.1262 3.926 17.1271 3.26935 16.7226 2.86382C16.7219 2.86317 16.7213 2.86258 16.7207 2.86194L14.1636 0.304819C13.7591 -0.100718 13.1024 -0.101559 12.6969 0.302938C12.6962 0.303583 12.6956 0.304176 12.695 0.304819L11.0839 1.91588L1.78964 11.1983C1.65639 11.313 1.54041 11.4463 1.44526 11.5941L0.0162849 16.4907C-0.0464077 16.7001 0.0725918 16.9207 0.28204 16.9834ZM5.27698 14.6659C5.18149 14.762 5.02612 14.7626 4.92993 14.6671C4.92949 14.6667 4.92909 14.6663 4.92865 14.6659L3.91926 13.6525L13.0988 4.48884L14.2863 5.67635L5.27698 14.6659ZM13.269 0.866909C13.3666 0.774431 13.5196 0.774431 13.6173 0.866909L16.1586 3.42007C16.2548 3.51557 16.2553 3.67093 16.1599 3.76712C16.1595 3.76757 16.159 3.76796 16.1586 3.76841L14.8286 5.09843L13.3758 3.6457L11.9231 2.19297L13.269 0.866909ZM2.35965 11.7604L11.365 2.75506L12.5525 3.94258L3.373 13.1062L2.37548 12.1087C2.27929 12.0132 2.27875 11.8579 2.3742 11.7617C2.37459 11.7612 2.37504 11.7608 2.37548 11.7604H2.35965ZM1.93214 12.8054L3.07612 13.9494L4.16468 15.034L0.997965 16.0275L1.93214 12.8054Z" fill="white"/>
</svg>
