<svg width="205" height="232" viewBox="0 0 205 232" fill="none" xmlns="http://www.w3.org/2000/svg">
<circle cx="102.5" cy="129.5" r="102.5" fill="#202020"/>
<path d="M152.625 56.0095H150.75V52.2807C150.75 49.1965 148.227 46.6875 145.125 46.6875C142.023 46.6875 139.5 49.1965 139.5 52.2807V56.0095H64.5V52.2807C64.5 49.1965 61.9767 46.6875 58.875 46.6875C55.7733 46.6875 53.25 49.1965 53.25 52.2807V56.0095H51.375C46.2056 56.0095 42 60.1914 42 65.3316V147.365C42 152.506 46.2056 156.688 51.375 156.688H152.625C157.794 156.688 162 152.506 162 147.365V65.3316C162 60.1914 157.794 56.0095 152.625 56.0095ZM143.25 52.2807C143.25 51.2527 144.091 50.4163 145.125 50.4163C146.159 50.4163 147 51.2527 147 52.2807V57.8695C147 57.8711 147 57.8725 147 57.8739C147 57.8753 147 57.877 147 57.8784V63.4672C147 64.4951 146.159 65.3316 145.125 65.3316C144.091 65.3316 143.25 64.4951 143.25 63.4672V52.2807ZM58.875 50.4163C59.9088 50.4163 60.75 51.2527 60.75 52.2807V63.4672C60.75 64.4951 59.9088 65.3316 58.875 65.3316C57.8412 65.3316 57 64.4951 57 63.4672V57.8763C57 57.8756 57 57.8746 57 57.8739C57 57.8732 57 57.8725 57 57.8716V52.2807C57 51.2527 57.8412 50.4163 58.875 50.4163ZM152.625 152.959H51.375C48.2733 152.959 45.75 150.45 45.75 147.365V76.518H135.75C136.785 76.518 137.625 75.6832 137.625 74.6536C137.625 73.624 136.785 72.7892 135.75 72.7892H45.75V65.3316C45.75 62.2474 48.2733 59.7383 51.375 59.7383H53.25V63.4672C53.25 66.5514 55.7733 69.0604 58.875 69.0604C61.9767 69.0604 64.5 66.5514 64.5 63.4672V59.7383H139.5V63.4672C139.5 66.5514 142.023 69.0604 145.125 69.0604C148.227 69.0604 150.75 66.5514 150.75 63.4672V59.7383H152.625C155.727 59.7383 158.25 62.2474 158.25 65.3316V72.7892H154.5C153.465 72.7892 152.625 73.624 152.625 74.6536C152.625 75.6832 153.465 76.518 154.5 76.518H158.25V147.365C158.25 150.45 155.727 152.959 152.625 152.959Z" fill="white"/>
<path d="M147 72.7892H143.25C142.215 72.7892 141.375 73.624 141.375 74.6536C141.375 75.6832 142.215 76.518 143.25 76.518H147C148.035 76.518 148.875 75.6832 148.875 74.6536C148.875 73.624 148.035 72.7892 147 72.7892Z" fill="white"/>
<path d="M103.875 89.5688H100.125C99.0895 89.5688 98.25 90.4036 98.25 91.4333C98.25 92.4629 99.0895 93.2977 100.125 93.2977H103.875C104.91 93.2977 105.75 92.4629 105.75 91.4333C105.75 90.4036 104.91 89.5688 103.875 89.5688Z" fill="white"/>
<path d="M103.875 98.8909H100.125C99.0895 98.8909 98.25 99.7257 98.25 100.755C98.25 101.785 99.0895 102.62 100.125 102.62H103.875C104.91 102.62 105.75 101.785 105.75 100.755C105.75 99.7257 104.91 98.8909 103.875 98.8909Z" fill="white"/>
<path d="M103.875 108.213H100.125C99.0895 108.213 98.25 109.048 98.25 110.077C98.25 111.107 99.0895 111.942 100.125 111.942H103.875C104.91 111.942 105.75 111.107 105.75 110.077C105.75 109.048 104.91 108.213 103.875 108.213Z" fill="white"/>
<path d="M103.875 117.535H100.125C99.0895 117.535 98.25 118.37 98.25 119.399C98.25 120.429 99.0895 121.264 100.125 121.264H103.875C104.91 121.264 105.75 120.429 105.75 119.399C105.75 118.37 104.91 117.535 103.875 117.535Z" fill="white"/>
<path d="M103.875 126.857H100.125C99.0895 126.857 98.25 127.692 98.25 128.721C98.25 129.751 99.0895 130.586 100.125 130.586H103.875C104.91 130.586 105.75 129.751 105.75 128.721C105.75 127.692 104.91 126.857 103.875 126.857Z" fill="white"/>
<path d="M103.875 136.179H100.125C99.0895 136.179 98.25 137.014 98.25 138.043C98.25 139.073 99.0895 139.908 100.125 139.908H103.875C104.91 139.908 105.75 139.073 105.75 138.043C105.75 137.014 104.91 136.179 103.875 136.179Z" fill="white"/>
<path d="M117 89.5688H113.25C112.215 89.5688 111.375 90.4036 111.375 91.4333C111.375 92.4629 112.215 93.2977 113.25 93.2977H117C118.035 93.2977 118.875 92.4629 118.875 91.4333C118.875 90.4036 118.035 89.5688 117 89.5688Z" fill="white"/>
<path d="M117 98.8909H113.25C112.215 98.8909 111.375 99.7257 111.375 100.755C111.375 101.785 112.215 102.62 113.25 102.62H117C118.035 102.62 118.875 101.785 118.875 100.755C118.875 99.7257 118.035 98.8909 117 98.8909Z" fill="white"/>
<path d="M117 108.213H113.25C112.215 108.213 111.375 109.048 111.375 110.077C111.375 111.107 112.215 111.942 113.25 111.942H117C118.035 111.942 118.875 111.107 118.875 110.077C118.875 109.048 118.035 108.213 117 108.213Z" fill="white"/>
<path d="M117 117.535H113.25C112.215 117.535 111.375 118.37 111.375 119.399C111.375 120.429 112.215 121.264 113.25 121.264H117C118.035 121.264 118.875 120.429 118.875 119.399C118.875 118.37 118.035 117.535 117 117.535Z" fill="white"/>
<path d="M117 126.857H113.25C112.215 126.857 111.375 127.692 111.375 128.721C111.375 129.751 112.215 130.586 113.25 130.586H117C118.035 130.586 118.875 129.751 118.875 128.721C118.875 127.692 118.035 126.857 117 126.857Z" fill="white"/>
<path d="M117 136.179H113.25C112.215 136.179 111.375 137.014 111.375 138.043C111.375 139.073 112.215 139.908 113.25 139.908H117C118.035 139.908 118.875 139.073 118.875 138.043C118.875 137.014 118.035 136.179 117 136.179Z" fill="white"/>
<path d="M90.75 89.5688H87C85.9645 89.5688 85.125 90.4036 85.125 91.4333C85.125 92.4629 85.9645 93.2977 87 93.2977H90.75C91.7855 93.2977 92.625 92.4629 92.625 91.4333C92.625 90.4036 91.7855 89.5688 90.75 89.5688Z" fill="white"/>
<path d="M90.75 98.8909H87C85.9645 98.8909 85.125 99.7257 85.125 100.755C85.125 101.785 85.9645 102.62 87 102.62H90.75C91.7855 102.62 92.625 101.785 92.625 100.755C92.625 99.7257 91.7855 98.8909 90.75 98.8909Z" fill="white"/>
<path d="M90.75 108.213H87C85.9645 108.213 85.125 109.048 85.125 110.077C85.125 111.107 85.9645 111.942 87 111.942H90.75C91.7855 111.942 92.625 111.107 92.625 110.077C92.625 109.048 91.7855 108.213 90.75 108.213Z" fill="white"/>
<path d="M90.75 117.535H87C85.9645 117.535 85.125 118.37 85.125 119.399C85.125 120.429 85.9645 121.264 87 121.264H90.75C91.7855 121.264 92.625 120.429 92.625 119.399C92.625 118.37 91.7855 117.535 90.75 117.535Z" fill="white"/>
<path d="M90.75 126.857H87C85.9645 126.857 85.125 127.692 85.125 128.721C85.125 129.751 85.9645 130.586 87 130.586H90.75C91.7855 130.586 92.625 129.751 92.625 128.721C92.625 127.692 91.7855 126.857 90.75 126.857Z" fill="white"/>
<path d="M90.75 136.179H87C85.9645 136.179 85.125 137.014 85.125 138.043C85.125 139.073 85.9645 139.908 87 139.908H90.75C91.7855 139.908 92.625 139.073 92.625 138.043C92.625 137.014 91.7855 136.179 90.75 136.179Z" fill="white"/>
<path d="M77.625 89.5688H73.875C72.8395 89.5688 72 90.4036 72 91.4333C72 92.4629 72.8395 93.2977 73.875 93.2977H77.625C78.6605 93.2977 79.5 92.4629 79.5 91.4333C79.5 90.4036 78.6605 89.5688 77.625 89.5688Z" fill="white"/>
<path d="M77.625 98.8909H73.875C72.8395 98.8909 72 99.7257 72 100.755C72 101.785 72.8395 102.62 73.875 102.62H77.625C78.6605 102.62 79.5 101.785 79.5 100.755C79.5 99.7257 78.6605 98.8909 77.625 98.8909Z" fill="white"/>
<path d="M77.625 108.213H73.875C72.8395 108.213 72 109.048 72 110.077C72 111.107 72.8395 111.942 73.875 111.942H77.625C78.6605 111.942 79.5 111.107 79.5 110.077C79.5 109.048 78.6605 108.213 77.625 108.213Z" fill="white"/>
<path d="M77.625 117.535H73.875C72.8395 117.535 72 118.37 72 119.399C72 120.429 72.8395 121.264 73.875 121.264H77.625C78.6605 121.264 79.5 120.429 79.5 119.399C79.5 118.37 78.6605 117.535 77.625 117.535Z" fill="white"/>
<path d="M77.625 126.857H73.875C72.8395 126.857 72 127.692 72 128.721C72 129.751 72.8395 130.586 73.875 130.586H77.625C78.6605 130.586 79.5 129.751 79.5 128.721C79.5 127.692 78.6605 126.857 77.625 126.857Z" fill="white"/>
<path d="M77.625 136.179H73.875C72.8395 136.179 72 137.014 72 138.043C72 139.073 72.8395 139.908 73.875 139.908H77.625C78.6605 139.908 79.5 139.073 79.5 138.043C79.5 137.014 78.6605 136.179 77.625 136.179Z" fill="white"/>
<path d="M130.125 89.5688H126.375C125.34 89.5688 124.5 90.4036 124.5 91.4333C124.5 92.4629 125.34 93.2977 126.375 93.2977H130.125C131.16 93.2977 132 92.4629 132 91.4333C132 90.4036 131.16 89.5688 130.125 89.5688Z" fill="white"/>
<path d="M130.125 98.8909H126.375C125.34 98.8909 124.5 99.7257 124.5 100.755C124.5 101.785 125.34 102.62 126.375 102.62H130.125C131.16 102.62 132 101.785 132 100.755C132 99.7257 131.16 98.8909 130.125 98.8909Z" fill="white"/>
<path d="M130.125 108.213H126.375C125.34 108.213 124.5 109.048 124.5 110.077C124.5 111.107 125.34 111.942 126.375 111.942H130.125C131.16 111.942 132 111.107 132 110.077C132 109.048 131.16 108.213 130.125 108.213Z" fill="white"/>
<path d="M130.125 117.535H126.375C125.34 117.535 124.5 118.37 124.5 119.399C124.5 120.429 125.34 121.264 126.375 121.264H130.125C131.16 121.264 132 120.429 132 119.399C132 118.37 131.16 117.535 130.125 117.535Z" fill="white"/>
<path d="M130.125 126.857H126.375C125.34 126.857 124.5 127.692 124.5 128.721C124.5 129.751 125.34 130.586 126.375 130.586H130.125C131.16 130.586 132 129.751 132 128.721C132 127.692 131.16 126.857 130.125 126.857Z" fill="white"/>
<path d="M130.125 136.179H126.375C125.34 136.179 124.5 137.014 124.5 138.043C124.5 139.073 125.34 139.908 126.375 139.908H130.125C131.16 139.908 132 139.073 132 138.043C132 137.014 131.16 136.179 130.125 136.179Z" fill="white"/>
<path d="M143.25 89.5688H139.5C138.465 89.5688 137.625 90.4036 137.625 91.4333C137.625 92.4629 138.465 93.2977 139.5 93.2977H143.25C144.285 93.2977 145.125 92.4629 145.125 91.4333C145.125 90.4036 144.285 89.5688 143.25 89.5688Z" fill="white"/>
<path d="M143.25 98.8909H139.5C138.465 98.8909 137.625 99.7257 137.625 100.755C137.625 101.785 138.465 102.62 139.5 102.62H143.25C144.285 102.62 145.125 101.785 145.125 100.755C145.125 99.7257 144.285 98.8909 143.25 98.8909Z" fill="white"/>
<path d="M143.25 108.213H139.5C138.465 108.213 137.625 109.048 137.625 110.077C137.625 111.107 138.465 111.942 139.5 111.942H143.25C144.285 111.942 145.125 111.107 145.125 110.077C145.125 109.048 144.285 108.213 143.25 108.213Z" fill="white"/>
<path d="M143.25 117.535H139.5C138.465 117.535 137.625 118.37 137.625 119.399C137.625 120.429 138.465 121.264 139.5 121.264H143.25C144.285 121.264 145.125 120.429 145.125 119.399C145.125 118.37 144.285 117.535 143.25 117.535Z" fill="white"/>
<path d="M143.25 126.857H139.5C138.465 126.857 137.625 127.692 137.625 128.721C137.625 129.751 138.465 130.586 139.5 130.586H143.25C144.285 130.586 145.125 129.751 145.125 128.721C145.125 127.692 144.285 126.857 143.25 126.857Z" fill="white"/>
<path d="M143.25 136.179H139.5C138.465 136.179 137.625 137.014 137.625 138.043C137.625 139.073 138.465 139.908 139.5 139.908H143.25C144.285 139.908 145.125 139.073 145.125 138.043C145.125 137.014 144.285 136.179 143.25 136.179Z" fill="white"/>
<path d="M64.5 89.5688H60.75C59.7145 89.5688 58.875 90.4036 58.875 91.4333C58.875 92.4629 59.7145 93.2977 60.75 93.2977H64.5C65.5355 93.2977 66.375 92.4629 66.375 91.4333C66.375 90.4036 65.5355 89.5688 64.5 89.5688Z" fill="white"/>
<path d="M64.5 98.8909H60.75C59.7145 98.8909 58.875 99.7257 58.875 100.755C58.875 101.785 59.7145 102.62 60.75 102.62H64.5C65.5355 102.62 66.375 101.785 66.375 100.755C66.375 99.7257 65.5355 98.8909 64.5 98.8909Z" fill="white"/>
<path d="M64.5 108.213H60.75C59.7145 108.213 58.875 109.048 58.875 110.077C58.875 111.107 59.7145 111.942 60.75 111.942H64.5C65.5355 111.942 66.375 111.107 66.375 110.077C66.375 109.048 65.5355 108.213 64.5 108.213Z" fill="white"/>
<path d="M64.5 117.535H60.75C59.7145 117.535 58.875 118.37 58.875 119.399C58.875 120.429 59.7145 121.264 60.75 121.264H64.5C65.5355 121.264 66.375 120.429 66.375 119.399C66.375 118.37 65.5355 117.535 64.5 117.535Z" fill="white"/>
<path d="M64.5 126.857H60.75C59.7145 126.857 58.875 127.692 58.875 128.721C58.875 129.751 59.7145 130.586 60.75 130.586H64.5C65.5355 130.586 66.375 129.751 66.375 128.721C66.375 127.692 65.5355 126.857 64.5 126.857Z" fill="white"/>
<path d="M64.5 136.179H60.75C59.7145 136.179 58.875 137.014 58.875 138.043C58.875 139.073 59.7145 139.908 60.75 139.908H64.5C65.5355 139.908 66.375 139.073 66.375 138.043C66.375 137.014 65.5355 136.179 64.5 136.179Z" fill="white"/>
<mask id="path-46-inside-1_178_549" fill="white">
<path d="M153.75 13.7324C173.308 25.0241 188.589 42.4587 197.22 63.3278C205.85 84.1968 207.347 107.332 201.478 129.139C195.608 150.947 182.701 170.205 164.762 183.923C146.822 197.641 124.855 205.05 102.271 205C79.6881 204.949 57.7536 197.442 39.8755 183.644C21.9973 169.847 9.17638 150.531 3.4044 128.698C-2.36758 106.864 -0.767461 83.736 7.95618 62.9056C16.6798 42.0752 32.0386 24.709 51.6465 13.5046L52.6199 15.2081C33.3873 26.1979 18.3225 43.2318 9.76579 63.6635C1.20912 84.0951 -0.360375 106.781 5.30113 128.196C10.9626 149.611 23.5382 168.558 41.0741 182.091C58.6101 195.625 80.1247 202.988 102.276 203.038C124.427 203.087 145.974 195.82 163.57 182.365C181.166 168.909 193.826 150.019 199.583 128.629C205.34 107.24 203.872 84.5472 195.407 64.0775C186.941 43.6079 171.952 26.507 152.769 15.4314L153.75 13.7324Z"/>
</mask>
<path d="M153.75 13.7324C173.308 25.0241 188.589 42.4587 197.22 63.3278C205.85 84.1968 207.347 107.332 201.478 129.139C195.608 150.947 182.701 170.205 164.762 183.923C146.822 197.641 124.855 205.05 102.271 205C79.6881 204.949 57.7536 197.442 39.8755 183.644C21.9973 169.847 9.17638 150.531 3.4044 128.698C-2.36758 106.864 -0.767461 83.736 7.95618 62.9056C16.6798 42.0752 32.0386 24.709 51.6465 13.5046L52.6199 15.2081C33.3873 26.1979 18.3225 43.2318 9.76579 63.6635C1.20912 84.0951 -0.360375 106.781 5.30113 128.196C10.9626 149.611 23.5382 168.558 41.0741 182.091C58.6101 195.625 80.1247 202.988 102.276 203.038C124.427 203.087 145.974 195.82 163.57 182.365C181.166 168.909 193.826 150.019 199.583 128.629C205.34 107.24 203.872 84.5472 195.407 64.0775C186.941 43.6079 171.952 26.507 152.769 15.4314L153.75 13.7324Z" stroke="white" stroke-width="6" mask="url(#path-46-inside-1_178_549)"/>
</svg>
