<svg width="377" height="377" viewBox="0 0 377 377" fill="none" xmlns="http://www.w3.org/2000/svg">
<circle cx="188.5" cy="188.5" r="188" fill="#202020" stroke="white"/>
<path d="M104.039 187.797H99.2344L99.2109 186.578H103.348C104.191 186.578 104.91 186.457 105.504 186.215C106.098 185.973 106.547 185.613 106.852 185.137C107.164 184.652 107.32 184.059 107.32 183.355C107.32 182.637 107.168 182.043 106.863 181.574C106.559 181.098 106.102 180.746 105.492 180.52C104.883 180.293 104.117 180.18 103.195 180.18H99.6094V196H98.168V178.938H103.195C104.062 178.938 104.84 179.023 105.527 179.195C106.215 179.367 106.801 179.637 107.285 180.004C107.77 180.371 108.137 180.836 108.387 181.398C108.645 181.953 108.773 182.617 108.773 183.391C108.773 184.094 108.617 184.73 108.305 185.301C107.992 185.863 107.551 186.324 106.98 186.684C106.418 187.035 105.742 187.254 104.953 187.34L104.039 187.797ZM103.934 196H98.7773L99.5156 194.77H103.934C104.777 194.77 105.496 194.629 106.09 194.348C106.691 194.059 107.152 193.648 107.473 193.117C107.793 192.586 107.953 191.953 107.953 191.219C107.953 190.57 107.812 189.988 107.531 189.473C107.25 188.957 106.82 188.551 106.242 188.254C105.664 187.949 104.93 187.797 104.039 187.797H101.051L101.074 186.578H105.305L105.562 187.012C106.328 187.09 106.996 187.328 107.566 187.727C108.145 188.117 108.59 188.613 108.902 189.215C109.223 189.816 109.383 190.477 109.383 191.195C109.383 192.227 109.152 193.102 108.691 193.82C108.238 194.531 107.602 195.074 106.781 195.449C105.969 195.816 105.02 196 103.934 196ZM116.002 187.914H120.138C121.138 187.914 121.982 188.09 122.67 188.441C123.357 188.785 123.877 189.262 124.228 189.871C124.587 190.48 124.767 191.168 124.767 191.934C124.767 192.512 124.666 193.051 124.462 193.551C124.267 194.043 123.97 194.473 123.572 194.84C123.181 195.207 122.697 195.492 122.119 195.695C121.548 195.898 120.888 196 120.138 196H115.111V183.32H116.505V194.793H120.138C120.912 194.793 121.537 194.66 122.013 194.395C122.49 194.121 122.834 193.77 123.045 193.34C123.263 192.91 123.373 192.453 123.373 191.969C123.373 191.492 123.263 191.039 123.045 190.609C122.834 190.172 122.49 189.816 122.013 189.543C121.537 189.262 120.912 189.121 120.138 189.121H116.002V187.914ZM129.068 183.32V196H127.673V183.32H129.068ZM143.609 177.801H144.816C144.816 178.387 144.71 178.875 144.499 179.266C144.296 179.656 144.007 179.973 143.632 180.215C143.257 180.457 142.816 180.648 142.308 180.789C141.808 180.922 141.261 181.035 140.667 181.129C139.941 181.238 139.273 181.477 138.663 181.844C138.062 182.211 137.546 182.715 137.116 183.355C136.687 183.988 136.362 184.773 136.144 185.711C135.933 186.641 135.847 187.73 135.886 188.98V190.07H134.679V188.98C134.679 187.605 134.812 186.387 135.077 185.324C135.351 184.254 135.737 183.34 136.237 182.582C136.745 181.824 137.347 181.223 138.042 180.777C138.745 180.324 139.523 180.027 140.374 179.887C141.171 179.762 141.804 179.609 142.273 179.43C142.749 179.25 143.089 179.027 143.292 178.762C143.503 178.496 143.609 178.176 143.609 177.801ZM140.491 184.152C141.32 184.152 142.066 184.293 142.73 184.574C143.394 184.855 143.96 185.254 144.429 185.77C144.905 186.277 145.269 186.879 145.519 187.574C145.777 188.262 145.905 189.016 145.905 189.836V190.211C145.905 191.086 145.773 191.891 145.507 192.625C145.249 193.359 144.874 193.996 144.382 194.535C143.898 195.074 143.308 195.492 142.612 195.789C141.925 196.086 141.155 196.234 140.304 196.234C139.445 196.234 138.671 196.086 137.984 195.789C137.296 195.492 136.706 195.074 136.214 194.535C135.722 193.996 135.343 193.359 135.077 192.625C134.812 191.891 134.679 191.086 134.679 190.211V189.836C134.679 189.609 134.702 189.387 134.749 189.168C134.804 188.949 134.87 188.734 134.948 188.523C135.027 188.305 135.105 188.09 135.183 187.879C135.456 187.168 135.843 186.535 136.343 185.98C136.843 185.418 137.441 184.973 138.136 184.645C138.839 184.316 139.624 184.152 140.491 184.152ZM140.28 185.348C139.366 185.348 138.597 185.559 137.972 185.98C137.355 186.395 136.886 186.945 136.566 187.633C136.245 188.312 136.085 189.047 136.085 189.836V190.211C136.085 190.859 136.175 191.473 136.355 192.051C136.534 192.629 136.8 193.145 137.152 193.598C137.511 194.043 137.952 194.395 138.476 194.652C138.999 194.91 139.609 195.039 140.304 195.039C140.991 195.039 141.597 194.91 142.12 194.652C142.644 194.395 143.081 194.043 143.433 193.598C143.784 193.145 144.05 192.629 144.23 192.051C144.409 191.473 144.499 190.859 144.499 190.211V189.836C144.499 189.242 144.409 188.676 144.23 188.137C144.05 187.598 143.78 187.121 143.421 186.707C143.07 186.285 142.628 185.953 142.097 185.711C141.573 185.469 140.968 185.348 140.28 185.348ZM152.173 185.758V200.875H150.766V183.32H152.079L152.173 185.758ZM160.985 189.543V189.789C160.985 190.734 160.876 191.602 160.657 192.391C160.438 193.18 160.122 193.863 159.708 194.441C159.302 195.012 158.798 195.453 158.196 195.766C157.595 196.078 156.911 196.234 156.145 196.234C155.388 196.234 154.712 196.117 154.118 195.883C153.524 195.648 153.013 195.316 152.583 194.887C152.161 194.449 151.821 193.941 151.563 193.363C151.313 192.777 151.138 192.137 151.036 191.441V188.195C151.153 187.43 151.345 186.734 151.61 186.109C151.876 185.484 152.216 184.945 152.63 184.492C153.052 184.039 153.552 183.691 154.13 183.449C154.708 183.207 155.368 183.086 156.11 183.086C156.884 183.086 157.571 183.238 158.173 183.543C158.782 183.84 159.294 184.273 159.708 184.844C160.13 185.406 160.446 186.086 160.657 186.883C160.876 187.672 160.985 188.559 160.985 189.543ZM159.579 189.789V189.543C159.579 188.801 159.501 188.113 159.345 187.48C159.196 186.848 158.966 186.297 158.653 185.828C158.348 185.352 157.958 184.98 157.481 184.715C157.013 184.449 156.454 184.316 155.805 184.316C155.134 184.316 154.559 184.43 154.083 184.656C153.614 184.875 153.223 185.168 152.911 185.535C152.598 185.895 152.352 186.289 152.173 186.719C151.993 187.148 151.86 187.57 151.774 187.984V191.723C151.923 192.316 152.161 192.867 152.489 193.375C152.817 193.875 153.255 194.277 153.802 194.582C154.356 194.879 155.032 195.027 155.829 195.027C156.47 195.027 157.024 194.895 157.493 194.629C157.962 194.363 158.348 193.992 158.653 193.516C158.966 193.039 159.196 192.484 159.345 191.852C159.501 191.219 159.579 190.531 159.579 189.789ZM174.213 193.727V187.188C174.213 186.586 174.088 186.066 173.838 185.629C173.588 185.191 173.221 184.855 172.737 184.621C172.252 184.387 171.655 184.27 170.944 184.27C170.287 184.27 169.702 184.387 169.186 184.621C168.678 184.848 168.276 185.156 167.979 185.547C167.69 185.93 167.545 186.355 167.545 186.824L166.139 186.812C166.139 186.336 166.256 185.875 166.491 185.43C166.725 184.984 167.057 184.586 167.487 184.234C167.916 183.883 168.428 183.605 169.022 183.402C169.623 183.191 170.284 183.086 171.002 183.086C171.909 183.086 172.705 183.238 173.393 183.543C174.088 183.848 174.631 184.305 175.022 184.914C175.412 185.523 175.608 186.289 175.608 187.211V193.34C175.608 193.777 175.639 194.23 175.702 194.699C175.772 195.168 175.87 195.555 175.995 195.859V196H174.506C174.412 195.719 174.338 195.367 174.284 194.945C174.237 194.516 174.213 194.109 174.213 193.727ZM174.541 188.617L174.565 189.695H171.811C171.092 189.695 170.448 189.762 169.877 189.895C169.315 190.02 168.838 190.207 168.448 190.457C168.057 190.699 167.756 190.992 167.545 191.336C167.342 191.68 167.241 192.07 167.241 192.508C167.241 192.961 167.354 193.375 167.58 193.75C167.815 194.125 168.143 194.426 168.565 194.652C168.995 194.871 169.502 194.98 170.088 194.98C170.87 194.98 171.557 194.836 172.151 194.547C172.752 194.258 173.248 193.879 173.639 193.41C174.03 192.941 174.291 192.43 174.424 191.875L175.034 192.684C174.932 193.074 174.745 193.477 174.471 193.891C174.205 194.297 173.858 194.68 173.428 195.039C172.998 195.391 172.491 195.68 171.905 195.906C171.327 196.125 170.67 196.234 169.936 196.234C169.108 196.234 168.385 196.078 167.768 195.766C167.159 195.453 166.682 195.027 166.338 194.488C166.002 193.941 165.834 193.324 165.834 192.637C165.834 192.012 165.967 191.453 166.233 190.961C166.498 190.461 166.881 190.039 167.381 189.695C167.889 189.344 168.498 189.078 169.209 188.898C169.928 188.711 170.733 188.617 171.623 188.617H174.541ZM186.059 183.32V196H184.664V183.32H186.059ZM190.676 183.32V184.516H180.211V183.32H190.676ZM196.439 187.914H200.576C201.576 187.914 202.42 188.09 203.107 188.441C203.795 188.785 204.314 189.262 204.666 189.871C205.025 190.48 205.205 191.168 205.205 191.934C205.205 192.512 205.103 193.051 204.9 193.551C204.705 194.043 204.408 194.473 204.009 194.84C203.619 195.207 203.134 195.492 202.556 195.695C201.986 195.898 201.326 196 200.576 196H195.548V183.32H196.943V194.793H200.576C201.349 194.793 201.974 194.66 202.451 194.395C202.927 194.121 203.271 193.77 203.482 193.34C203.701 192.91 203.81 192.453 203.81 191.969C203.81 191.492 203.701 191.039 203.482 190.609C203.271 190.172 202.927 189.816 202.451 189.543C201.974 189.262 201.349 189.121 200.576 189.121H196.439V187.914ZM233.149 189.766V190.012C233.149 190.941 233.048 191.789 232.845 192.555C232.649 193.312 232.356 193.969 231.966 194.523C231.583 195.078 231.106 195.504 230.536 195.801C229.973 196.098 229.329 196.246 228.602 196.246C228.079 196.246 227.614 196.18 227.208 196.047C226.802 195.914 226.454 195.734 226.165 195.508C225.884 195.281 225.657 195.02 225.485 194.723C225.321 194.426 225.208 194.117 225.145 193.797V185.711C225.223 185.336 225.348 184.992 225.52 184.68C225.692 184.359 225.919 184.082 226.2 183.848C226.481 183.605 226.817 183.418 227.208 183.285C227.598 183.152 228.055 183.086 228.579 183.086C229.165 183.086 229.7 183.191 230.184 183.402C230.669 183.605 231.095 183.902 231.462 184.293C231.829 184.676 232.137 185.141 232.387 185.688C232.637 186.234 232.825 186.852 232.95 187.539C233.083 188.227 233.149 188.969 233.149 189.766ZM231.755 190.012V189.766C231.755 189.156 231.712 188.578 231.626 188.031C231.54 187.484 231.407 186.984 231.227 186.531C231.048 186.07 230.817 185.676 230.536 185.348C230.262 185.012 229.934 184.754 229.552 184.574C229.177 184.387 228.747 184.293 228.262 184.293C227.723 184.293 227.29 184.359 226.962 184.492C226.634 184.625 226.387 184.785 226.223 184.973C226.059 185.16 225.942 185.332 225.872 185.488V194.09C225.958 194.207 226.095 194.34 226.282 194.488C226.477 194.637 226.739 194.766 227.067 194.875C227.395 194.984 227.802 195.039 228.286 195.039C228.887 195.039 229.407 194.914 229.845 194.664C230.282 194.414 230.641 194.062 230.923 193.609C231.204 193.156 231.411 192.625 231.544 192.016C231.684 191.406 231.755 190.738 231.755 190.012ZM218.36 190.012V189.766C218.36 188.969 218.423 188.227 218.548 187.539C218.68 186.852 218.872 186.234 219.122 185.688C219.38 185.141 219.692 184.676 220.059 184.293C220.427 183.902 220.852 183.605 221.337 183.402C221.821 183.191 222.356 183.086 222.942 183.086C223.458 183.086 223.907 183.152 224.29 183.285C224.68 183.418 225.012 183.605 225.286 183.848C225.559 184.082 225.782 184.359 225.954 184.68C226.126 184.992 226.255 185.336 226.341 185.711V193.691C226.278 194.027 226.161 194.352 225.989 194.664C225.825 194.969 225.602 195.242 225.321 195.484C225.048 195.719 224.708 195.902 224.302 196.035C223.903 196.176 223.442 196.246 222.919 196.246C222.192 196.246 221.544 196.098 220.973 195.801C220.411 195.504 219.934 195.078 219.544 194.523C219.161 193.969 218.868 193.312 218.665 192.555C218.462 191.789 218.36 190.941 218.36 190.012ZM219.778 189.766V190.012C219.778 190.738 219.841 191.406 219.966 192.016C220.098 192.625 220.302 193.156 220.575 193.609C220.856 194.062 221.212 194.414 221.641 194.664C222.071 194.914 222.583 195.039 223.177 195.039C223.669 195.039 224.079 194.98 224.407 194.863C224.735 194.738 224.993 194.594 225.18 194.43C225.376 194.266 225.516 194.117 225.602 193.984V185.488C225.532 185.332 225.415 185.16 225.251 184.973C225.087 184.785 224.841 184.625 224.512 184.492C224.192 184.359 223.755 184.293 223.2 184.293C222.598 184.293 222.079 184.434 221.641 184.715C221.212 184.996 220.856 185.387 220.575 185.887C220.302 186.387 220.098 186.969 219.966 187.633C219.841 188.289 219.778 189 219.778 189.766ZM225.016 200.875V178H226.423V200.875H225.016ZM237.94 189.859V189.473C237.94 188.551 238.073 187.699 238.338 186.918C238.604 186.137 238.983 185.461 239.475 184.891C239.975 184.32 240.573 183.879 241.268 183.566C241.963 183.246 242.737 183.086 243.588 183.086C244.448 183.086 245.225 183.246 245.92 183.566C246.616 183.879 247.213 184.32 247.713 184.891C248.213 185.461 248.596 186.137 248.862 186.918C249.127 187.699 249.26 188.551 249.26 189.473V189.859C249.26 190.781 249.127 191.633 248.862 192.414C248.596 193.188 248.213 193.859 247.713 194.43C247.221 195 246.627 195.445 245.932 195.766C245.237 196.078 244.463 196.234 243.612 196.234C242.752 196.234 241.975 196.078 241.28 195.766C240.584 195.445 239.987 195 239.487 194.43C238.987 193.859 238.604 193.188 238.338 192.414C238.073 191.633 237.94 190.781 237.94 189.859ZM239.334 189.473V189.859C239.334 190.555 239.428 191.215 239.616 191.84C239.803 192.457 240.077 193.008 240.436 193.492C240.795 193.969 241.241 194.344 241.772 194.617C242.303 194.891 242.916 195.027 243.612 195.027C244.299 195.027 244.905 194.891 245.428 194.617C245.959 194.344 246.405 193.969 246.764 193.492C247.123 193.008 247.393 192.457 247.573 191.84C247.76 191.215 247.854 190.555 247.854 189.859V189.473C247.854 188.785 247.76 188.133 247.573 187.516C247.393 186.898 247.12 186.348 246.752 185.863C246.393 185.379 245.948 184.996 245.416 184.715C244.885 184.434 244.276 184.293 243.588 184.293C242.901 184.293 242.291 184.434 241.76 184.715C241.237 184.996 240.791 185.379 240.424 185.863C240.065 186.348 239.791 186.898 239.604 187.516C239.424 188.133 239.334 188.785 239.334 189.473ZM258.785 183.32V196H257.391V183.32H258.785ZM263.402 183.32V184.516H252.938V183.32H263.402ZM266.857 189.859V189.473C266.857 188.551 266.99 187.699 267.255 186.918C267.521 186.137 267.9 185.461 268.392 184.891C268.892 184.32 269.49 183.879 270.185 183.566C270.88 183.246 271.654 183.086 272.505 183.086C273.365 183.086 274.142 183.246 274.837 183.566C275.533 183.879 276.13 184.32 276.63 184.891C277.13 185.461 277.513 186.137 277.779 186.918C278.045 187.699 278.177 188.551 278.177 189.473V189.859C278.177 190.781 278.045 191.633 277.779 192.414C277.513 193.188 277.13 193.859 276.63 194.43C276.138 195 275.545 195.445 274.849 195.766C274.154 196.078 273.38 196.234 272.529 196.234C271.67 196.234 270.892 196.078 270.197 195.766C269.502 195.445 268.904 195 268.404 194.43C267.904 193.859 267.521 193.188 267.255 192.414C266.99 191.633 266.857 190.781 266.857 189.859ZM268.252 189.473V189.859C268.252 190.555 268.345 191.215 268.533 191.84C268.72 192.457 268.994 193.008 269.353 193.492C269.712 193.969 270.158 194.344 270.689 194.617C271.22 194.891 271.834 195.027 272.529 195.027C273.216 195.027 273.822 194.891 274.345 194.617C274.877 194.344 275.322 193.969 275.681 193.492C276.041 193.008 276.31 192.457 276.49 191.84C276.677 191.215 276.771 190.555 276.771 189.859V189.473C276.771 188.785 276.677 188.133 276.49 187.516C276.31 186.898 276.037 186.348 275.67 185.863C275.31 185.379 274.865 184.996 274.334 184.715C273.802 184.434 273.193 184.293 272.505 184.293C271.818 184.293 271.209 184.434 270.677 184.715C270.154 184.996 269.709 185.379 269.341 185.863C268.982 186.348 268.709 186.898 268.521 187.516C268.341 188.133 268.252 188.785 268.252 189.473Z" fill="white"/>
</svg>
