<svg width="205" height="232" viewBox="0 0 205 232" fill="none" xmlns="http://www.w3.org/2000/svg">
<circle cx="102.5" cy="129.5" r="102.5" fill="#202020"/>
<mask id="path-2-inside-1_178_646" fill="white">
<path d="M153.75 13.7324C173.308 25.0241 188.589 42.4587 197.22 63.3278C205.85 84.1968 207.347 107.332 201.478 129.139C195.608 150.947 182.701 170.205 164.762 183.923C146.822 197.641 124.855 205.05 102.271 205C79.6881 204.949 57.7536 197.442 39.8755 183.644C21.9973 169.847 9.17638 150.531 3.4044 128.698C-2.36758 106.864 -0.767461 83.736 7.95618 62.9056C16.6798 42.0752 32.0386 24.709 51.6465 13.5046L52.6199 15.2081C33.3873 26.1979 18.3225 43.2318 9.76579 63.6635C1.20912 84.0951 -0.360375 106.781 5.30113 128.196C10.9626 149.611 23.5382 168.558 41.0741 182.091C58.6101 195.625 80.1247 202.988 102.276 203.038C124.427 203.087 145.974 195.82 163.57 182.365C181.166 168.909 193.826 150.019 199.583 128.629C205.34 107.24 203.872 84.5472 195.407 64.0775C186.941 43.6079 171.952 26.507 152.769 15.4314L153.75 13.7324Z"/>
</mask>
<path d="M153.75 13.7324C173.308 25.0241 188.589 42.4587 197.22 63.3278C205.85 84.1968 207.347 107.332 201.478 129.139C195.608 150.947 182.701 170.205 164.762 183.923C146.822 197.641 124.855 205.05 102.271 205C79.6881 204.949 57.7536 197.442 39.8755 183.644C21.9973 169.847 9.17638 150.531 3.4044 128.698C-2.36758 106.864 -0.767461 83.736 7.95618 62.9056C16.6798 42.0752 32.0386 24.709 51.6465 13.5046L52.6199 15.2081C33.3873 26.1979 18.3225 43.2318 9.76579 63.6635C1.20912 84.0951 -0.360375 106.781 5.30113 128.196C10.9626 149.611 23.5382 168.558 41.0741 182.091C58.6101 195.625 80.1247 202.988 102.276 203.038C124.427 203.087 145.974 195.82 163.57 182.365C181.166 168.909 193.826 150.019 199.583 128.629C205.34 107.24 203.872 84.5472 195.407 64.0775C186.941 43.6079 171.952 26.507 152.769 15.4314L153.75 13.7324Z" stroke="white" stroke-width="6" mask="url(#path-2-inside-1_178_646)"/>
<path d="M160.1 75.6574L160.119 75.7022L160.146 75.7425C160.366 76.0734 160.496 76.4692 160.5 76.895C160.499 76.8984 160.498 76.903 160.496 76.9088C160.493 76.9199 160.483 76.9547 160.476 76.9836C160.467 77.0169 160.457 77.0614 160.451 77.1129L160.448 77.142V77.1713V160.391C160.448 161.555 159.503 162.5 158.34 162.5H43.6076C42.4445 162.5 41.5 161.555 41.5 160.391V76.9698C41.5009 76.9663 41.5019 76.9627 41.5029 76.959C41.5104 76.93 41.5191 76.8889 41.5224 76.8393L41.5225 76.8393L41.523 76.8276C41.5345 76.5602 41.5752 76.3177 41.6653 76.1L41.6721 76.0836L41.6772 76.0684L54.7002 44.7966C54.7002 44.7966 54.7002 44.7966 54.7002 44.7966C55.0268 44.0124 55.7939 43.5 56.6454 43.5H93.1512H108.797H145.302C146.154 43.5 146.921 44.0124 147.248 44.7966L160.1 75.6574ZM154.429 74.8043H155.179L154.891 74.1121L144.025 48.0251L143.897 47.7174H143.563H111.404H110.904V48.2174V74.3043V74.8043H111.404H154.429ZM106.689 48.2174V47.7174H106.189H95.7588H95.2588V48.2174V74.3043V74.8043H95.7588H106.189H106.689V74.3043V48.2174ZM95.7588 79.0217H95.2588V79.5217V100.391V100.891H95.7588H106.189H106.689V100.391V79.5217V79.0217H106.189H95.7588ZM58.3846 47.7174H58.0512L57.9231 48.0251L47.0573 74.1121L46.769 74.8043H47.5189H90.5437H91.0437V74.3043V48.2174V47.7174H90.5437H58.3846ZM155.733 158.283H156.233V157.783V79.5217V79.0217H155.733H111.404H110.904V79.5217V103C110.904 104.164 109.96 105.109 108.797 105.109H93.1512C91.9882 105.109 91.0437 104.164 91.0437 103V79.5217V79.0217H90.5437H46.2151H45.7151V79.5217V157.783V158.283H46.2151H155.733Z" fill="white" stroke="#2D2D2D"/>
<path d="M142.195 123.87V124.37H142.695H147.91C149.073 124.37 150.018 125.314 150.018 126.478V152.565C150.018 153.729 149.073 154.674 147.91 154.674H116.619C115.456 154.674 114.512 153.729 114.512 152.565V126.478C114.512 125.314 115.456 124.37 116.619 124.37H121.834H122.334V123.87V118.652C122.334 113.173 126.789 108.717 132.265 108.717C137.741 108.717 142.195 113.173 142.195 118.652V123.87ZM137.48 124.37H137.98V123.87V118.652C137.98 115.499 135.417 112.935 132.265 112.935C129.112 112.935 126.55 115.499 126.55 118.652V123.87V124.37H127.05H137.48ZM119.227 128.587H118.727V129.087V149.957V150.457H119.227H145.302H145.802V149.957V129.087V128.587H145.302H140.087H124.442H119.227Z" fill="white" stroke="#2D2D2D"/>
<path d="M124.941 139.522C124.941 135.483 128.228 132.196 132.264 132.196C136.301 132.196 139.587 135.483 139.587 139.522C139.587 143.561 136.301 146.848 132.264 146.848C128.228 146.848 124.941 143.561 124.941 139.522ZM129.157 139.522C129.157 141.235 130.551 142.63 132.264 142.63C133.977 142.63 135.372 141.235 135.372 139.522C135.372 137.808 133.977 136.413 132.264 136.413C130.551 136.413 129.157 137.808 129.157 139.522Z" fill="white" stroke="#2D2D2D"/>
</svg>
