<svg width="90" height="90" viewBox="0 0 90 90" fill="none" xmlns="http://www.w3.org/2000/svg">
<path d="M67 33.7537C67.0039 32.791 66.6505 31.8647 66.015 31.1722C66.0122 31.1692 66.0108 31.1652 66.008 31.1623L66.0004 31.1548L65.9976 31.1514L65.9934 31.1474C65.6617 30.785 65.264 30.4966 64.8241 30.2995C64.3842 30.1023 63.911 30.0005 63.4329 30H26.5667C26.0896 30.0006 25.6176 30.1022 25.1786 30.2986C24.7396 30.495 24.3427 30.7823 24.0113 31.1434L24.0029 31.1509L23.9977 31.1573L23.993 31.1623L23.9883 31.1687C23.3506 31.8614 22.9959 32.7893 23 33.7537V56.2463C22.9985 57.1448 23.3053 58.0137 23.864 58.6931L23.8669 58.6966C24.2013 59.1054 24.6156 59.4335 25.0815 59.6584C25.5475 59.8834 26.054 59.9999 26.5667 60H63.4329C63.9444 60.0003 64.45 59.8845 64.9151 59.6606C65.3803 59.4367 65.7941 59.1099 66.1284 58.7025L66.1327 58.6971L66.135 58.6946L66.1388 58.6887C66.6954 58.0099 67.0011 57.1429 67 56.2463V33.7537ZM52.0243 44.901L65.2352 33.053C65.3136 33.2774 65.3534 33.5147 65.3529 33.7537V56.2463C65.3506 56.4289 65.3246 56.6103 65.2757 56.7856L52.0243 44.901ZM63.4329 31.7332C63.6396 31.7364 63.8445 31.7751 64.0395 31.8476L48.2153 46.0399C47.3208 46.8503 46.1796 47.296 44.9993 47.296C43.819 47.296 42.6778 46.8503 41.7833 46.0399L25.9601 31.8476C26.155 31.7751 26.3599 31.7365 26.5667 31.7332H63.4329ZM24.7233 56.7861C24.6748 56.6108 24.649 56.4294 24.6466 56.2468V33.7537C24.6462 33.5145 24.686 33.2771 24.7643 33.0525L37.9748 44.901L24.7233 56.7861ZM26.5667 58.2668C26.3036 58.2656 26.0436 58.2072 25.8029 58.0954L39.2444 46.0399L40.7146 47.3582C41.9064 48.4377 43.4268 49.0315 44.9993 49.0315C46.5718 49.0315 48.0922 48.4377 49.284 47.3582L50.7551 46.0399L64.1971 58.0964C63.9563 58.2083 63.6961 58.2666 63.4329 58.2677L26.5667 58.2668Z" fill="white"/>
</svg>
