<svg width="205" height="232" viewBox="0 0 205 232" fill="none" xmlns="http://www.w3.org/2000/svg">
<circle cx="102.5" cy="129.5" r="102.5" fill="#202020"/>
<g clip-path="url(#clip0_178_600)">
<path d="M144.428 59.5725C133.096 48.2407 118.028 42 102 42C85.972 42 70.9041 48.2407 59.5723 59.5725C48.2407 70.9041 42 85.972 42 102C42 118.028 48.2407 133.096 59.5723 144.427C70.9041 155.759 85.972 162 102 162C118.028 162 133.096 155.759 144.428 144.427C155.759 133.096 162 118.028 162 102C162 85.972 155.759 70.9041 144.428 59.5725ZM141.803 141.803C131.172 152.434 117.037 158.289 102 158.289C86.9634 158.289 72.8276 152.434 62.1966 141.803C51.5658 131.173 45.7113 117.037 45.7113 102C45.7113 86.9632 51.5658 72.8273 62.1966 62.1966C72.8276 51.566 86.9634 45.7113 102 45.7113C117.037 45.7113 131.172 51.566 141.803 62.1966C152.434 72.8273 158.289 86.963 158.289 102C158.289 117.037 152.434 131.173 141.803 141.803Z" fill="white"/>
<path d="M102 53.134C95.086 53.134 88.4039 54.5515 82.1393 57.3466C76.0906 60.0455 70.7271 63.8892 66.2009 68.768C57.7744 77.8094 53.1338 89.6119 53.1338 102C53.1338 114.388 57.7744 126.191 66.1983 135.229C70.7276 140.111 76.0908 143.955 82.1398 146.653C88.4039 149.448 95.0862 150.866 102 150.866C108.758 150.866 115.3 149.511 121.445 146.84C127.392 144.254 132.689 140.563 137.181 135.876C146.006 126.757 150.866 114.726 150.866 102C150.866 75.0551 128.945 53.134 102 53.134ZM134.507 133.302C125.946 142.235 114.402 147.155 102 147.155C95.6105 147.155 89.4373 145.845 83.652 143.264C78.0626 140.77 73.1058 137.218 68.9159 132.702C61.1321 124.35 56.8451 113.446 56.8451 102C56.8451 90.554 61.1321 79.6505 68.9189 71.295C73.1058 66.7823 78.0626 63.2297 83.652 60.7357C89.4373 58.1545 95.6105 56.8453 102 56.8453C126.898 56.8453 147.154 77.1016 147.154 102C147.154 113.758 142.665 124.872 134.507 133.302Z" fill="white"/>
<path d="M103.856 59.9381H100.145V71.0721H103.856V59.9381Z" fill="white"/>
<path d="M103.856 132.928H100.145V144.062H103.856V132.928Z" fill="white"/>
<path d="M144.062 100.144H134.165V103.856H144.062V100.144Z" fill="white"/>
<path d="M69.8354 100.144H59.9385V103.856H69.8354V100.144Z" fill="white"/>
<path d="M72.3831 72.2325L69.7588 74.8568L77.182 82.28L79.8063 79.6558L72.3831 72.2325Z" fill="white"/>
<path d="M130.382 72.2336L122.959 79.6569L125.583 82.2811L133.006 74.8579L130.382 72.2336Z" fill="white"/>
<path d="M125.579 121.718L122.955 124.343L130.378 131.766L133.003 129.141L125.579 121.718Z" fill="white"/>
<path d="M77.1869 121.719L69.7637 129.142L72.388 131.767L79.8112 124.343L77.1869 121.719Z" fill="white"/>
<path d="M103.856 99.9944V77.2577H100.145V101.531L118.008 119.395L120.632 116.77L103.856 99.9944Z" fill="white"/>
</g>
<mask id="path-13-inside-1_178_600" fill="white">
<path d="M153.75 13.7324C173.308 25.0241 188.589 42.4587 197.22 63.3278C205.85 84.1968 207.347 107.332 201.478 129.139C195.608 150.947 182.701 170.205 164.762 183.923C146.822 197.641 124.855 205.05 102.271 205C79.6881 204.949 57.7536 197.442 39.8755 183.644C21.9973 169.847 9.17638 150.531 3.4044 128.698C-2.36758 106.864 -0.767461 83.736 7.95618 62.9056C16.6798 42.0752 32.0386 24.709 51.6465 13.5046L52.6199 15.2081C33.3873 26.1979 18.3225 43.2318 9.76579 63.6635C1.20912 84.0951 -0.360375 106.781 5.30113 128.196C10.9626 149.611 23.5382 168.558 41.0741 182.091C58.6101 195.625 80.1247 202.988 102.276 203.038C124.427 203.087 145.974 195.82 163.57 182.365C181.166 168.909 193.826 150.019 199.583 128.629C205.34 107.24 203.872 84.5472 195.407 64.0775C186.941 43.6079 171.952 26.507 152.769 15.4314L153.75 13.7324Z"/>
</mask>
<path d="M153.75 13.7324C173.308 25.0241 188.589 42.4587 197.22 63.3278C205.85 84.1968 207.347 107.332 201.478 129.139C195.608 150.947 182.701 170.205 164.762 183.923C146.822 197.641 124.855 205.05 102.271 205C79.6881 204.949 57.7536 197.442 39.8755 183.644C21.9973 169.847 9.17638 150.531 3.4044 128.698C-2.36758 106.864 -0.767461 83.736 7.95618 62.9056C16.6798 42.0752 32.0386 24.709 51.6465 13.5046L52.6199 15.2081C33.3873 26.1979 18.3225 43.2318 9.76579 63.6635C1.20912 84.0951 -0.360375 106.781 5.30113 128.196C10.9626 149.611 23.5382 168.558 41.0741 182.091C58.6101 195.625 80.1247 202.988 102.276 203.038C124.427 203.087 145.974 195.82 163.57 182.365C181.166 168.909 193.826 150.019 199.583 128.629C205.34 107.24 203.872 84.5472 195.407 64.0775C186.941 43.6079 171.952 26.507 152.769 15.4314L153.75 13.7324Z" stroke="white" stroke-width="6" mask="url(#path-13-inside-1_178_600)"/>
<defs>
<clipPath id="clip0_178_600">
<rect width="120" height="120" fill="white" transform="translate(42 42)"/>
</clipPath>
</defs>
</svg>
