<svg width="159" height="300" viewBox="0 0 159 300" fill="none" xmlns="http://www.w3.org/2000/svg">
<path d="M127.8 96.9C122 70.7 107.6 57.6 84.6 57.6C79.2 57.6 74.2 58.5 69.6 60.3C65 61.9 60.9 64.1 57.3 66.9C53.9 69.7 51.2 73 49.2 76.8C47.4 80.6 46.5 84.6 46.5 88.8C46.5 92.2 47.1 95.4 48.3 98.4C49.5 101.2 51.8 104.2 55.2 107.4C58.6 110.4 63.3 113.7 69.3 117.3C75.3 120.9 83 125.2 92.4 130.2C102 135 110.1 139.4 116.7 143.4C123.5 147.2 129.1 151.3 133.5 155.7C137.9 159.9 141.1 164.6 143.1 169.8C145.1 175 146.1 181.3 146.1 188.7C146.1 205.5 140.2 219.1 128.4 229.5C116.8 239.7 100.5 244.8 79.5 244.8C60.1 244.8 42.4 240.1 26.4 230.7L29.7 186H33.9C34.7 193.2 36.7 199.9 39.9 206.1C43.1 212.3 47 217.7 51.6 222.3C56.4 226.7 61.7 230.2 67.5 232.8C73.3 235.4 79.2 236.7 85.2 236.7C90.6 236.7 95.9 235.9 101.1 234.3C106.3 232.5 110.8 230.1 114.6 227.1C118.6 224.1 121.8 220.5 124.2 216.3C126.6 211.9 127.8 207.1 127.8 201.9C127.8 197.1 127.1 193 125.7 189.6C124.3 186 121.8 182.5 118.2 179.1C114.8 175.7 110.1 172.2 104.1 168.6C98.1 165 90.5 160.8 81.3 156C63.5 146.6 50.5 137.5 42.3 128.7C34.1 119.9 30 109.8 30 98.4C30 91.2 31.4 84.7 34.2 78.9C37.2 72.9 41.3 67.7 46.5 63.3C51.9 58.9 58.2 55.5 65.4 53.1C72.6 50.7 80.6 49.5 89.4 49.5C106.8 49.5 121.3 53.9 132.9 62.7L131.7 96.9H127.8Z" fill="url(#paint0_linear_766_623)"/>
<path fill-rule="evenodd" clip-rule="evenodd" d="M92.4835 59.6923C96.4528 65.5759 99.425 72.9785 101.4 81.9H105.3L105.981 62.4774C119.363 67.6485 128.169 79.7894 132.4 98.9H136.3L137.5 64.7C128.759 58.0692 118.372 53.9365 106.339 52.302L106.5 47.7C94.9 38.9 80.4 34.5 63 34.5C54.2 34.5 46.2 35.7 39 38.1C31.8 40.5 25.5 43.9 20.1 48.3C14.9 52.7 10.8 57.9 7.8 63.9C5 69.7 3.6 76.2 3.6 83.4C3.6 94.8 7.7 104.9 15.9 113.7C23.2784 121.618 34.5431 129.779 49.6941 138.184V181.787C49.6941 182.001 49.7792 182.207 49.9307 182.358C50.0822 182.51 50.2876 182.595 50.5018 182.595C50.7158 182.595 50.9209 182.51 51.0724 182.359C51.2238 182.207 51.3091 182.002 51.3095 181.789V139.072C52.4838 139.714 53.6806 140.356 54.9 141C56.7395 141.96 58.5149 142.895 60.2265 143.807V170.794C60.2265 171.008 60.3116 171.213 60.463 171.365C60.6145 171.516 60.82 171.601 61.0342 171.601C61.2484 171.601 61.4538 171.516 61.6053 171.365C61.7568 171.213 61.8419 171.008 61.8419 170.794V144.671C65.0591 146.397 68.0393 148.034 70.7822 149.583C70.8171 149.725 70.8903 149.856 70.9954 149.961C71.1469 150.112 71.3523 150.197 71.5665 150.197C71.6478 150.197 71.7279 150.185 71.8042 150.162C73.9164 151.363 75.8817 152.509 77.7 153.6C78.9541 154.352 80.1514 155.101 81.292 155.844V176.909C81.292 177.124 81.3771 177.329 81.5285 177.48C81.68 177.632 81.8854 177.717 82.0996 177.717C82.3139 177.717 82.5193 177.632 82.6708 177.48C82.8223 177.329 82.9073 177.124 82.9073 176.909V156.921C86.4902 159.361 89.4545 161.754 91.8 164.1C95.4 167.5 97.9 171 99.3 174.6C100.7 178 101.4 182.1 101.4 186.9C101.4 192.1 100.2 196.9 97.8 201.3C95.4 205.5 92.2 209.1 88.2 212.1C84.4 215.1 79.9 217.5 74.7 219.3C69.5 220.9 64.2 221.7 58.8 221.7C57.0052 221.7 55.2194 221.584 53.4425 221.351C50.0207 217.438 47.0399 213.021 44.5 208.1C41.3 201.9 39.3 195.2 38.5 188H34.3L32.4535 213.011C29.9206 211.315 27.5028 209.411 25.2 207.3C20.6 202.7 16.7 197.3 13.5 191.1C10.3 184.9 8.3 178.2 7.5 171H3.3L0 215.7C9.8166 221.467 20.2731 225.465 31.3696 227.694L31 232.7C47 242.1 64.7 246.8 84.1 246.8C105.1 246.8 121.4 241.7 133 231.5C144.8 221.1 150.7 207.5 150.7 190.7C150.7 183.3 149.7 177 147.7 171.8C145.7 166.6 142.5 161.9 138.1 157.7C133.7 153.3 128.1 149.2 121.3 145.4C119.189 144.12 116.924 142.8 114.505 141.438V123.032C114.505 122.818 114.42 122.612 114.269 122.461C114.117 122.309 113.912 122.224 113.697 122.224C113.483 122.224 113.278 122.309 113.126 122.461C112.975 122.612 112.89 122.818 112.89 123.032V140.535C110.109 138.992 107.137 137.398 103.972 135.753V113.567C103.972 113.353 103.887 113.147 103.735 112.996C103.584 112.844 103.379 112.759 103.164 112.759C102.95 112.759 102.745 112.844 102.593 112.996C102.442 113.147 102.357 113.353 102.357 113.567V134.917C100.626 134.026 98.8407 133.12 97 132.2C96.093 131.718 95.2019 131.242 94.3266 130.772C94.0335 130.59 93.7379 130.408 93.4397 130.228V120.192C93.4397 119.978 93.3546 119.773 93.2031 119.621C93.0517 119.47 92.8462 119.385 92.632 119.385C92.4178 119.385 92.2123 119.47 92.0609 119.621C91.9094 119.773 91.8243 119.978 91.8243 120.192V129.269C91.3231 128.977 90.815 128.688 90.3 128.4C88.0155 127.015 85.5513 125.583 82.9073 124.103V104.685C82.9073 104.471 82.8223 104.266 82.6708 104.114C82.5193 103.963 82.3139 103.878 82.0996 103.878C81.8854 103.878 81.68 103.963 81.5285 104.114C81.3771 104.266 81.292 104.471 81.292 104.685V123.204C78.7295 121.79 76.0072 120.332 73.1249 118.832C68.5937 116.081 64.8327 113.508 61.8419 111.113V110.801C61.8419 110.587 61.7568 110.382 61.6053 110.23C61.4538 110.079 61.2484 109.994 61.0342 109.994C60.8871 109.994 60.7442 110.034 60.62 110.108C60.3387 109.87 60.0654 109.634 59.8 109.4C56.4 106.2 54.1 103.2 52.9 100.4C51.7 97.4 51.1 94.2 51.1 90.8C51.1 86.6 52 82.6 53.8 78.8C55.8 75 58.5 71.7 61.9 68.9C65.5 66.1 69.6 63.9 74.2 62.3C78.8 60.5 83.8 59.6 89.2 59.6C90.3147 59.6 91.4092 59.6308 92.4835 59.6923ZM60.62 110.108C60.5633 110.142 60.5105 110.183 60.463 110.23C60.3116 110.382 60.2265 110.587 60.2265 110.801V143.807C60.7714 144.097 61.3099 144.385 61.8419 144.671V111.113C61.4192 110.774 61.0119 110.439 60.62 110.108ZM81.292 123.204V155.844C81.8437 156.204 82.3822 156.563 82.9073 156.921V124.103C82.3761 123.805 81.8377 123.506 81.292 123.204ZM91.8243 129.269V161.401C91.8243 161.615 91.9094 161.821 92.0609 161.972C92.2123 162.124 92.4178 162.209 92.632 162.209C92.8462 162.209 93.0517 162.124 93.2031 161.972C93.3546 161.821 93.4397 161.615 93.4397 161.401V130.228C92.9094 129.906 92.3709 129.586 91.8243 129.269ZM102.357 134.917V168.026C102.357 168.241 102.442 168.446 102.593 168.597C102.745 168.749 102.95 168.834 103.164 168.834C103.379 168.834 103.584 168.749 103.735 168.597C103.887 168.446 103.972 168.241 103.972 168.026V135.753C103.439 135.476 102.901 135.197 102.357 134.917ZM112.89 140.535V158.561C112.89 158.775 112.975 158.98 113.126 159.132C113.278 159.283 113.483 159.369 113.697 159.369C113.912 159.369 114.117 159.283 114.269 159.132C114.42 158.98 114.505 158.775 114.505 158.561V141.438C113.974 141.139 113.436 140.838 112.89 140.535ZM71.8042 150.162C71.9289 150.123 72.0437 150.055 72.1376 149.961C72.2891 149.809 72.3742 149.604 72.3742 149.39V132.207C72.3742 131.993 72.2891 131.787 72.1376 131.636C71.9862 131.484 71.7807 131.399 71.5665 131.399C71.3523 131.399 71.1469 131.484 70.9954 131.636C70.8439 131.787 70.7588 131.993 70.7588 132.207V149.39C70.7588 149.455 70.7668 149.52 70.7822 149.583C71.1266 149.777 71.4673 149.97 71.8042 150.162ZM51.3095 139.072V99.8077C51.3095 99.5935 51.2244 99.388 51.0729 99.2366C50.9215 99.0851 50.716 99 50.5018 99C50.2876 99 50.0822 99.0851 49.9307 99.2366C49.7792 99.388 49.6941 99.5935 49.6941 99.8077V138.184C50.2278 138.48 50.7662 138.776 51.3095 139.072ZM85.6411 51.8833C80.0643 52.4109 74.8506 53.4831 70 55.1C62.8 57.5 56.5 60.9 51.1 65.3C45.9 69.7 41.8 74.9 38.8 80.9C36.4468 85.7745 35.0825 91.1434 34.707 97.0068C32.4283 95.3997 30.4593 93.8641 28.8 92.4C25.4 89.2 23.1 86.2 21.9 83.4C20.7 80.4 20.1 77.2 20.1 73.8C20.1 69.6 21 65.6 22.8 61.8C24.8 58 27.5 54.7 30.9 51.9C34.5 49.1 38.6 46.9 43.2 45.3C47.8 43.5 52.8 42.6 58.2 42.6C69.3785 42.6 78.5255 45.6944 85.6411 51.8833ZM119.557 178.153C118.592 192.919 112.739 205.035 102 214.5C92.212 223.107 79.0778 228.082 62.5972 229.427C65.5997 231.515 68.7673 233.306 72.1 234.8C77.9 237.4 83.8 238.7 89.8 238.7C95.2 238.7 100.5 237.9 105.7 236.3C110.9 234.5 115.4 232.1 119.2 229.1C123.2 226.1 126.4 222.5 128.8 218.3C131.2 213.9 132.4 209.1 132.4 203.9C132.4 199.1 131.7 195 130.3 191.6C128.9 188 126.4 184.5 122.8 181.1C121.826 180.126 120.745 179.143 119.557 178.153ZM30.4073 144.079H43.5121C43.7263 144.079 43.9318 143.994 44.0832 143.843C44.2347 143.691 44.3198 143.486 44.3198 143.272C44.3198 143.057 44.2347 142.852 44.0832 142.701C43.9318 142.549 43.7263 142.464 43.5121 142.464H30.4073C30.1931 142.464 29.9876 142.549 29.8362 142.701C29.6847 142.852 29.5996 143.057 29.5996 143.272C29.5996 143.486 29.6847 143.691 29.8362 143.843C29.9876 143.994 30.1931 144.079 30.4073 144.079ZM120.687 144.079H133.792C134.007 144.079 134.212 143.994 134.363 143.843C134.515 143.691 134.6 143.486 134.6 143.272C134.6 143.057 134.515 142.852 134.363 142.701C134.212 142.549 134.007 142.464 133.792 142.464H120.687C120.472 142.464 120.267 142.549 120.116 142.701C119.964 142.852 119.879 143.057 119.879 143.272C119.879 143.486 119.964 143.691 120.116 143.843C120.267 143.994 120.472 144.079 120.687 144.079Z" fill="black"/>
<defs>
<linearGradient id="paint0_linear_766_623" x1="87" y1="-3.94241e-09" x2="87.1378" y2="553.544" gradientUnits="userSpaceOnUse">
<stop stop-color="#FFDB7E"/>
<stop offset="1" stop-color="#FF8181" stop-opacity="0"/>
</linearGradient>
</defs>
</svg>
