<svg width="200" height="85" viewBox="0 0 200 85" fill="none" xmlns="http://www.w3.org/2000/svg">
<path d="M53 44.6426L53 0.999722L87.1015 0.999722L53 44.6426ZM53 44.6426L100.265 44.6426V0.999722L147 0.999722M147 0.999722V44.6426H119.613L147 0.999722Z" stroke="url(#paint0_linear_793_66)"/>
<path d="M65.1914 6.65332V38.9879L90.5111 38.9879L65.1914 6.65332ZM65.1914 6.65332L100.285 6.65332V38.9879L134.985 38.9879M134.985 38.9879V6.65332L114.65 6.65332L134.985 38.9879Z" stroke="url(#paint1_linear_793_66)"/>
<path d="M2.08 73.2V72.592H11.904C13.824 72.592 14.784 71.632 14.784 69.712V66.928C14.784 65.3493 14.08 64.4213 12.672 64.144L5.408 62.672C3.18933 62.224 2.08 60.7307 2.08 58.192V56.528C2.08 53.456 3.616 51.92 6.688 51.92H14.688L15.68 52.72V53.328H6.528C4.58667 53.328 3.616 54.288 3.616 56.208V58.448C3.616 60.048 4.32 60.9867 5.728 61.264L12.992 62.704C15.2107 63.152 16.32 64.6453 16.32 67.184V69.392C16.32 72.464 14.784 74 11.712 74H3.104L2.08 73.2ZM23.8782 57.84L24.0702 57.52H25.3182L30.7582 72.72H31.5903L37.0302 57.52H38.2782L38.4703 57.84L30.2142 80.4H28.9662L28.7742 80.08L31.0782 74H29.7982L23.8782 57.84ZM46.6637 74V57.52H55.3997C58.4291 57.52 59.9437 59.0453 59.9437 62.096V74H58.5037V61.776C58.5037 59.792 57.5117 58.8 55.5277 58.8H48.1037V74H46.6637ZM69.8015 69.424V62.096C69.8015 59.0453 71.3268 57.52 74.3775 57.52H80.8415L81.7375 58.192V58.8H74.2175C72.2335 58.8 71.2415 59.792 71.2415 61.776V69.744C71.2415 71.728 72.2335 72.72 74.2175 72.72H81.7375V73.328L80.8415 74H74.3775C71.3268 74 69.8015 72.4747 69.8015 69.424ZM90.0925 73.2V72.592H99.9165C101.836 72.592 102.796 71.632 102.796 69.712V66.928C102.796 65.3493 102.092 64.4213 100.684 64.144L93.4205 62.672C91.2018 62.224 90.0925 60.7307 90.0925 58.192V56.528C90.0925 53.456 91.6285 51.92 94.7005 51.92H102.7L103.692 52.72V53.328H94.5405C92.5992 53.328 91.6285 54.288 91.6285 56.208V58.448C91.6285 60.048 92.3325 60.9867 93.7405 61.264L101.004 62.704C103.223 63.152 104.332 64.6453 104.332 67.184V69.392C104.332 72.464 102.796 74 99.7245 74H91.1165L90.0925 73.2ZM113.683 69.424V62.096C113.683 59.0453 115.208 57.52 118.259 57.52H122.739C125.768 57.52 127.283 59.0453 127.283 62.096V69.424C127.283 72.4747 125.768 74 122.739 74H118.259C115.208 74 113.683 72.4747 113.683 69.424ZM115.123 69.744C115.123 71.728 116.115 72.72 118.099 72.72H122.867C124.851 72.72 125.843 71.728 125.843 69.744V61.776C125.843 59.792 124.851 58.8 122.867 58.8H118.099C116.115 58.8 115.123 59.792 115.123 61.776V69.744ZM137.142 69.424V57.52H138.582V69.744C138.582 71.728 139.574 72.72 141.558 72.72H148.982V57.52H150.422V74H141.718C138.667 74 137.142 72.4747 137.142 69.424ZM160.664 74V57.52H169.4C172.429 57.52 173.944 59.0453 173.944 62.096V74H172.504V61.776C172.504 59.792 171.512 58.8 169.528 58.8H162.104V74H160.664ZM183.801 69.424V62.096C183.801 59.0453 185.327 57.52 188.377 57.52H195.641V50.32H197.081V74H188.377C185.327 74 183.801 72.4747 183.801 69.424ZM185.241 69.744C185.241 71.728 186.233 72.72 188.217 72.72H195.641V58.8H188.217C186.233 58.8 185.241 59.792 185.241 61.776V69.744Z" fill="url(#paint2_linear_793_66)"/>
<defs>
<linearGradient id="paint0_linear_793_66" x1="53" y1="22.8211" x2="226.444" y2="22.7765" gradientUnits="userSpaceOnUse">
<stop stop-color="#FFDB7E"/>
<stop offset="1" stop-color="#FF8181" stop-opacity="0"/>
</linearGradient>
<linearGradient id="paint1_linear_793_66" x1="65.1914" y1="22.8206" x2="193.97" y2="22.8538" gradientUnits="userSpaceOnUse">
<stop stop-color="#FFDB7E"/>
<stop offset="1" stop-color="#FF8181" stop-opacity="0"/>
</linearGradient>
<linearGradient id="paint2_linear_793_66" x1="100" y1="45" x2="100.002" y2="118.806" gradientUnits="userSpaceOnUse">
<stop stop-color="#FFDB7E"/>
<stop offset="1" stop-color="#FF8181" stop-opacity="0"/>
</linearGradient>
</defs>
</svg>
