<svg width="205" height="232" viewBox="0 0 205 232" fill="none" xmlns="http://www.w3.org/2000/svg">
<circle cx="102.5" cy="129.5" r="102.5" fill="#202020"/>
<path d="M161.244 58.3944C132.689 56.0092 104.008 42.3046 103.721 42.1653C103.704 42.1572 103.684 42.1605 103.667 42.153C103.462 42.0616 103.237 42.0027 102.995 42C102.982 42 102.971 42 102.958 42C102.715 42.0027 102.491 42.0616 102.286 42.153C102.269 42.1605 102.249 42.1571 102.232 42.1653C101.944 42.3046 73.2641 56.0092 44.7085 58.3944C43.9321 58.4589 43.3167 59.0292 43.2441 59.7505C43.1668 60.5275 36.2078 137.803 102.386 161.896C102.577 161.965 102.776 162 102.976 162C103.183 162 103.388 161.963 103.584 161.89C170.31 136.75 162.791 60.5055 162.707 59.7388C162.628 59.0219 162.014 58.4589 161.244 58.3944ZM101.361 141.156C63.1448 118.061 64.0592 78.8945 64.593 71.6094C80.4435 69.9139 95.6282 63.4065 101.361 60.7218V141.156ZM104.592 60.7218C110.316 63.4017 125.46 69.8923 141.284 71.6006C141.405 79.1603 140.238 118.843 104.592 141.114V60.7218ZM46.3749 61.262C70.3269 58.9689 93.9776 49.1845 101.361 45.9074V57.3429C97.4379 59.2455 80.1497 67.2167 62.9424 68.7521C62.1881 68.8195 61.5853 69.3634 61.4938 70.0627C61.4295 70.5465 55.6745 118.48 101.361 144.718V158.226C44.2638 135.779 45.7981 71.027 46.3749 61.262ZM104.592 158.199V144.706C147.36 119.458 144.503 70.6418 144.469 70.1492C144.416 69.4147 143.799 68.8224 143.01 68.7521C125.803 67.2167 108.515 59.2455 104.592 57.3429V45.9076C111.977 49.1858 135.632 58.9717 159.589 61.262C160.233 70.9207 162.164 134.859 104.592 158.199Z" fill="white"/>
<mask id="path-3-inside-1_178_640" fill="white">
<path d="M153.75 13.7324C173.308 25.0241 188.589 42.4587 197.22 63.3278C205.85 84.1968 207.347 107.332 201.478 129.139C195.608 150.947 182.701 170.205 164.762 183.923C146.822 197.641 124.855 205.05 102.271 205C79.6881 204.949 57.7536 197.442 39.8755 183.644C21.9973 169.847 9.17638 150.531 3.4044 128.698C-2.36758 106.864 -0.767461 83.736 7.95618 62.9056C16.6798 42.0752 32.0386 24.709 51.6465 13.5046L52.6199 15.2081C33.3873 26.1979 18.3225 43.2318 9.76579 63.6635C1.20912 84.0951 -0.360375 106.781 5.30113 128.196C10.9626 149.611 23.5382 168.558 41.0741 182.091C58.6101 195.625 80.1247 202.988 102.276 203.038C124.427 203.087 145.974 195.82 163.57 182.365C181.166 168.909 193.826 150.019 199.583 128.629C205.34 107.24 203.872 84.5472 195.407 64.0775C186.941 43.6079 171.952 26.507 152.769 15.4314L153.75 13.7324Z"/>
</mask>
<path d="M153.75 13.7324C173.308 25.0241 188.589 42.4587 197.22 63.3278C205.85 84.1968 207.347 107.332 201.478 129.139C195.608 150.947 182.701 170.205 164.762 183.923C146.822 197.641 124.855 205.05 102.271 205C79.6881 204.949 57.7536 197.442 39.8755 183.644C21.9973 169.847 9.17638 150.531 3.4044 128.698C-2.36758 106.864 -0.767461 83.736 7.95618 62.9056C16.6798 42.0752 32.0386 24.709 51.6465 13.5046L52.6199 15.2081C33.3873 26.1979 18.3225 43.2318 9.76579 63.6635C1.20912 84.0951 -0.360375 106.781 5.30113 128.196C10.9626 149.611 23.5382 168.558 41.0741 182.091C58.6101 195.625 80.1247 202.988 102.276 203.038C124.427 203.087 145.974 195.82 163.57 182.365C181.166 168.909 193.826 150.019 199.583 128.629C205.34 107.24 203.872 84.5472 195.407 64.0775C186.941 43.6079 171.952 26.507 152.769 15.4314L153.75 13.7324Z" stroke="white" stroke-width="6" mask="url(#path-3-inside-1_178_640)"/>
</svg>
