<svg width="25" height="25" viewBox="0 0 25 25" fill="none" xmlns="http://www.w3.org/2000/svg">
<path d="M16.0225 0C11.0723 0 7.04501 4.0273 7.04501 8.9775C7.04501 11.3071 7.93713 13.4321 9.39746 15.0294L8.47417 15.9526C8.17343 15.7595 7.82363 15.6556 7.45763 15.6556C6.95362 15.6556 6.47979 15.8518 6.12348 16.2082L0.552642 21.7791C0.196282 22.1354 0 22.6092 0 23.1132C0 23.6172 0.196282 24.091 0.552642 24.4474C0.909051 24.8037 1.38283 25 1.88679 25C2.39075 25 2.86458 24.8037 3.22094 24.4474L8.79178 18.8765C9.14814 18.5202 9.34442 18.0463 9.34442 17.5424C9.34442 17.1498 9.2248 16.7757 9.00367 16.461L9.91438 15.5502C11.5179 17.0413 13.6654 17.955 16.0225 17.955C20.9727 17.955 25 13.9277 25 8.9775C25 4.0273 20.9727 0 16.0225 0ZM8.2729 16.7271C8.49066 16.9449 8.61057 17.2344 8.61057 17.5424C8.61057 17.7468 8.55744 17.9429 8.45822 18.1155L6.88454 16.5417C7.05709 16.4425 7.25323 16.3894 7.45763 16.3894C7.76561 16.3894 8.05514 16.5094 8.2729 16.7271ZM3.00719 23.6233L1.37671 21.9928L6.33723 17.0323L7.96771 18.6628L3.00719 23.6233ZM1.07158 23.9284C0.853816 23.7107 0.733855 23.4212 0.733855 23.1132C0.733855 22.9088 0.786986 22.7127 0.886204 22.5401L2.45993 24.1138C2.28733 24.213 2.09119 24.2661 1.88679 24.2661C1.57887 24.2661 1.28933 24.1462 1.07158 23.9284ZM16.0225 17.2211C11.477 17.2211 7.77886 13.523 7.77886 8.9775C7.77886 4.43195 11.477 0.733855 16.0225 0.733855C20.5681 0.733855 24.2661 4.43195 24.2661 8.9775C24.2661 13.523 20.5681 17.2211 16.0225 17.2211Z" fill="white"/>
<path d="M16.0223 1.56555C11.9353 1.56555 8.61035 4.8905 8.61035 8.97749C8.61035 13.0645 11.9353 16.3894 16.0223 16.3894C20.1093 16.3894 23.4342 13.0645 23.4342 8.97749C23.4342 4.8905 20.1093 1.56555 16.0223 1.56555ZM16.0223 15.6556C12.34 15.6556 9.34421 12.6598 9.34421 8.97749C9.34421 5.2952 12.34 2.29941 16.0223 2.29941C19.7046 2.29941 22.7004 5.2952 22.7004 8.97749C22.7004 12.6598 19.7046 15.6556 16.0223 15.6556Z" fill="white"/>
<path d="M21.6269 7.30714C21.0618 5.4092 19.5914 3.9387 17.6934 3.37373C17.4993 3.31595 17.2949 3.42652 17.237 3.62075C17.1792 3.81497 17.2898 4.01928 17.484 4.07711C19.1437 4.57114 20.4295 5.85695 20.9235 7.51659C20.971 7.67588 21.1169 7.77892 21.2751 7.77892C21.3097 7.77892 21.345 7.77397 21.3799 7.76355C21.5741 7.70568 21.6847 7.50137 21.6269 7.30714Z" fill="white"/>
</svg>
