<svg width="90" height="90" viewBox="0 0 90 90" fill="none" xmlns="http://www.w3.org/2000/svg">
<path d="M56.1086 33.7451L38.0128 44.8903C36.9888 45.5225 36.5042 46.771 36.8341 47.9259L38.7907 54.8009C38.9579 55.3871 39.4795 55.7767 40.0797 55.7767C40.1131 55.7767 40.1469 55.7755 40.1807 55.773C40.8224 55.7264 41.3301 55.2485 41.4154 54.6116L41.9242 50.8418C41.9927 50.3346 42.2371 49.8628 42.6117 49.5141L57.5447 35.6331C57.9959 35.2147 58.0556 34.5295 57.6837 34.0394C57.3113 33.5489 56.6345 33.422 56.1086 33.7451ZM41.4177 48.2306C40.7467 48.8552 40.3096 49.6992 40.1868 50.6072L39.9401 52.4358L38.5198 47.4452C38.4044 47.041 38.5744 46.6038 38.9328 46.3826L52.1893 38.2179L41.4177 48.2306Z" fill="white"/>
<path d="M66.2842 26.4802C65.7188 26.001 64.9386 25.8691 64.2476 26.136L24.296 41.5482C23.5047 41.8533 22.996 42.5983 23 43.4461C23.0041 44.2947 23.5204 45.0355 24.3162 45.3337L33.6482 48.8167L37.2884 60.5235C37.4883 61.1671 37.9929 61.6672 38.6379 61.8612C39.2826 62.0551 39.9789 61.9165 40.4993 61.4908L45.9254 57.0674C46.186 56.8549 46.5581 56.8445 46.8301 57.042L56.617 64.1474C56.9691 64.4033 57.3846 64.5351 57.8049 64.5351C58.0511 64.5351 58.2989 64.4899 58.5368 64.3979C59.1801 64.1491 59.648 63.5977 59.7881 62.923L66.9577 28.4355C67.1083 27.7093 66.8502 26.9601 66.2842 26.4802ZM65.2414 28.0793L58.0718 62.5667C58.0459 62.6913 57.9561 62.7431 57.9049 62.763C57.8534 62.7829 57.7515 62.805 57.6474 62.7292L47.8602 55.6235C47.4227 55.3058 46.9083 55.1481 46.3948 55.1481C45.8346 55.1481 45.2753 55.3359 44.8181 55.7084L39.3908 60.1328C39.2942 60.2119 39.1939 60.1978 39.1429 60.1824C39.0915 60.167 38.9998 60.1231 38.9625 60.0032L35.1946 47.8855C35.114 47.6265 34.9181 47.4194 34.6641 47.3246L24.9304 43.6917C24.7846 43.6371 24.7536 43.5235 24.7531 43.4376C24.7527 43.3525 24.7826 43.2393 24.927 43.1837L64.8787 27.7715C64.8789 27.7715 64.8792 27.7714 64.8794 27.7713C65.0092 27.7212 65.1052 27.7788 65.1509 27.8174C65.1968 27.8565 65.2698 27.9425 65.2414 28.0793Z" fill="white"/>
<path d="M59.7369 44.9362C59.2637 44.8334 58.797 45.1337 58.6944 45.6068L58.5611 46.2204C58.4585 46.6935 58.7587 47.1602 59.2318 47.2629C59.2945 47.2765 59.3569 47.283 59.4186 47.283C59.8221 47.283 60.1852 47.0027 60.2744 46.5924L60.4076 45.9788C60.5102 45.5057 60.2099 45.039 59.7369 44.9362Z" fill="white"/>
<path d="M58.86 48.9735C58.3863 48.8708 57.92 49.1711 57.8174 49.6442L55.8014 58.9298C55.6987 59.4029 55.999 59.8696 56.472 59.9723C56.5347 59.9859 56.5972 59.9924 56.6588 59.9924C57.0623 59.9924 57.4253 59.7121 57.5145 59.3017L59.5306 50.016C59.6333 49.5429 59.333 49.0762 58.86 48.9735Z" fill="white"/>
</svg>
