<svg width="90" height="90" viewBox="0 0 90 90" fill="none" xmlns="http://www.w3.org/2000/svg">
<path d="M58.6979 62.9147C51.9552 68.097 42.9137 68.9883 35.3516 65.41C35.188 65.3325 35.0005 65.3213 34.8287 65.3785L29.3455 67.2063C27.2344 67.9097 24.941 67.1679 23.6381 65.3603C22.6924 64.0484 22.4341 62.3466 22.9469 60.808L24.7388 55.4326C24.797 55.2577 24.7842 55.0669 24.7031 54.9012C20.5379 46.3978 22.0718 36.0018 29.0172 29.0417C29.8974 28.1595 30.8521 27.3469 31.8547 26.6265C32.1699 26.3999 32.2419 25.9607 32.0154 25.6455C31.7888 25.3303 31.3496 25.2584 31.0344 25.4849C29.9699 26.2499 28.9564 27.1125 28.0221 28.0488C20.7033 35.3832 19.0548 46.2929 23.315 55.2589L21.6133 60.3635C20.9581 62.3295 21.2887 64.5048 22.4978 66.1823C24.1676 68.4988 27.1007 69.4361 29.7899 68.5398L35.0077 66.8004C42.7897 70.3699 52.294 69.6096 59.5545 64.029C59.8623 63.7925 59.92 63.3512 59.6835 63.0434C59.447 62.7358 59.0058 62.678 58.6979 62.9147ZM62.0689 28.1376C54.3929 20.3597 42.9153 19.0415 33.9725 23.6801C33.6279 23.8588 33.4935 24.283 33.6722 24.6276C33.8508 24.9722 34.2753 25.1066 34.6197 24.928C43.0322 20.5645 53.838 21.7987 61.0684 29.125C69.64 37.8103 69.8581 51.8783 61.0972 60.789C60.8251 61.0659 60.8288 61.5108 61.1057 61.783C61.3824 62.0551 61.8276 62.0513 62.0995 61.7745C71.4051 52.3101 71.1742 37.3634 62.0689 28.1376ZM43.3295 55.9733C47.4841 58.1275 52.4725 57.5555 56.0428 54.5601C57.5877 53.2638 57.6899 50.9176 56.2641 49.4918L54.3339 47.5617C53.2542 46.482 51.5679 46.2452 50.2326 46.9856L47.6024 48.4442C47.0999 48.723 46.4907 48.7078 46.0128 48.4044C44.3102 47.3237 42.6604 45.6751 41.5776 43.9692C41.2743 43.4913 41.259 42.8822 41.5376 42.3795L42.9962 39.7493C43.7366 38.4142 43.4998 36.7277 42.4202 35.648L40.4901 33.7179C39.064 32.2918 36.7177 32.3945 35.4218 33.9392C32.4162 37.5214 31.8615 42.5117 34.0086 46.6526C35.9944 50.4821 39.3625 53.9162 43.3295 55.9733ZM36.4987 34.8428C37.2742 33.9183 38.6597 33.8756 39.4962 34.7119L41.4263 36.642C42.0648 37.2805 42.2049 38.278 41.7671 39.0676L40.3084 41.6978C39.7799 42.6508 39.8115 43.8098 40.3909 44.7226C41.5827 46.6003 43.3783 48.397 45.2595 49.5912C46.1722 50.1706 47.3311 50.2022 48.2843 49.6736L50.9145 48.2151C51.704 47.7771 52.7014 47.9171 53.3399 48.5557L55.2701 50.4858C56.1084 51.3241 56.0618 52.7091 55.1392 53.4834C51.9932 56.1229 47.6116 56.6104 43.9765 54.7255C40.4006 52.8712 37.1773 49.7096 35.2566 46.0055C33.3717 42.3702 33.8592 37.9886 36.4987 34.8428ZM25.4724 61.6497C24.8484 63.522 26.6311 65.3048 28.5036 64.6809L34.2465 62.7666C34.9173 62.543 35.645 62.5939 36.2953 62.9102C43.4663 66.3975 52.5282 65.3982 58.8491 59.2699C66.8749 51.489 66.9006 38.8244 59.1738 30.9949C51.3959 23.1139 38.7199 23.0871 30.9013 30.9221C24.5772 37.2598 23.497 46.5851 27.1912 53.9263C27.523 54.5859 27.5803 55.3259 27.3523 56.0099L25.4724 61.6497ZM28.4469 53.2944C25.007 46.4577 26.0289 37.7952 31.8965 31.915C39.2131 24.5829 50.9898 24.7035 58.1734 31.9824C65.3428 39.247 65.3447 51.0149 57.8709 58.2607C52.0657 63.889 43.6693 64.9331 36.9103 61.646C35.9271 61.1679 34.8234 61.0926 33.8021 61.433L28.0592 63.3473C27.2864 63.6049 26.5468 62.8727 26.8063 62.0943L28.6862 56.4546C29.0331 55.413 28.9482 54.2907 28.4469 53.2944Z" fill="white"/>
</svg>
